Pretension2-BlackItalic.ufo
<glyph name="exclam" format="2">
  <advance width="776"/>
  <unicode hex="0021"/>
  <unicode hex="E2AF"/>
  <outline>
    <contour>
      <point x="190" y="466" type="line"/>
      <point x="330" y="1490" type="line"/>
      <point x="754" y="1490" type="line"/>
      <point x="554" y="466" type="line"/>
    </contour>
    <contour>
      <point x="91" y="0" type="line"/>
      <point x="155" y="351" type="line"/>
      <point x="563" y="351" type="line"/>
      <point x="499" y="0" type="line"/>
    </contour>
  </outline>
</glyph>
<glyph name="percent" format="2">
  <advance width="1964"/>
  <unicode hex="0025"/>
  <outline>
    <contour>
      <point x="219" y="1084" type="qcurve" smooth="yes"/>
      <point x="232" y="1162" type="line" smooth="yes"/>
      <point x="248" y="1258"/>
      <point x="358" y="1418"/>
      <point x="532" y="1514"/>
      <point x="643" y="1514" type="qcurve" smooth="yes"/>
      <point x="759" y="1514"/>
      <point x="900" y="1418"/>
      <point x="954" y="1258"/>
      <point x="938" y="1162" type="qcurve" smooth="yes"/>
      <point x="925" y="1084" type="line" smooth="yes"/>
      <point x="910" y="988"/>
      <point x="802" y="829"/>
      <point x="628" y="734"/>
      <point x="514" y="734" type="qcurve" smooth="yes"/>
      <point x="400" y="734"/>
      <point x="258" y="830"/>
      <point x="204" y="990"/>
    </contour>
    <contour>
      <point x="488" y="1162" type="qcurve" smooth="yes"/>
      <point x="475" y="1084" type="line" smooth="yes"/>
      <point x="468" y="1040"/>
      <point x="495" y="962"/>
      <point x="551" y="962" type="qcurve" smooth="yes"/>
      <point x="611" y="962"/>
      <point x="662" y="1040"/>
      <point x="669" y="1084" type="qcurve" smooth="yes"/>
      <point x="682" y="1162" type="line" smooth="yes"/>
      <point x="690" y="1206"/>
      <point x="667" y="1288"/>
      <point x="605" y="1288" type="qcurve" smooth="yes"/>
      <point x="547" y="1288"/>
      <point x="495" y="1203"/>
    </contour>
    <contour>
      <point x="1088" y="326" type="qcurve" smooth="yes"/>
      <point x="1101" y="404" type="line" smooth="yes"/>
      <point x="1117" y="500"/>
      <point x="1227" y="660"/>
      <point x="1401" y="756"/>
      <point x="1512" y="756" type="qcurve" smooth="yes"/>
      <point x="1628" y="756"/>
      <point x="1769" y="660"/>
      <point x="1823" y="500"/>
      <point x="1807" y="404" type="qcurve" smooth="yes"/>
      <point x="1794" y="326" type="line" smooth="yes"/>
      <point x="1779" y="230"/>
      <point x="1671" y="71"/>
      <point x="1497" y="-24"/>
      <point x="1383" y="-24" type="qcurve" smooth="yes"/>
      <point x="1269" y="-24"/>
      <point x="1127" y="72"/>
      <point x="1073" y="232"/>
    </contour>
    <contour>
      <point x="1357" y="404" type="qcurve" smooth="yes"/>
      <point x="1344" y="326" type="line" smooth="yes"/>
      <point x="1337" y="282"/>
      <point x="1364" y="204"/>
      <point x="1420" y="204" type="qcurve" smooth="yes"/>
      <point x="1480" y="204"/>
      <point x="1531" y="282"/>
      <point x="1538" y="326" type="qcurve" smooth="yes"/>
      <point x="1551" y="404" type="line" smooth="yes"/>
      <point x="1559" y="448"/>
      <point x="1536" y="530"/>
      <point x="1474" y="530" type="qcurve" smooth="yes"/>
      <point x="1416" y="530"/>
      <point x="1364" y="445"/>
    </contour>
    <contour>
      <point x="257" y="0" type="line"/>
      <point x="1528" y="1490" type="line"/>
      <point x="1768" y="1490" type="line"/>
      <point x="497" y="0" type="line"/>
    </contour>
  </outline>
</glyph>
<glyph name="p" format="2">
  <advance width="1321"/>
  <unicode hex="0070"/>
  <anchor x="223" y="-402" name="m.uni0326"/>
  <anchor x="814" y="1118" name="m.uni030F_1"/>
  <outline>
    <contour>
      <point x="-60" y="-418" type="line"/>
      <point x="195" y="1118" type="line"/>
      <point x="593" y="1118" type="line"/>
      <point x="557" y="922" type="line"/>
      <point x="566" y="922" type="line"/>
      <point x="597" y="979"/>
      <point x="693" y="1075"/>
      <point x="821" y="1132"/>
      <point x="898" y="1132" type="qcurve" smooth="yes"/>
      <point x="998" y="1132"/>
      <point x="1166" y="1040"/>
      <point x="1269" y="846"/>
      <point x="1269" y="694" type="qcurve" smooth="yes"/>
      <point x="1269" y="583"/>
      <point x="1211" y="337"/>
      <point x="1086" y="122"/>
      <point x="887" y="-14"/>
      <point x="746" y="-14" type="qcurve" smooth="yes"/>
      <point x="662" y="-14"/>
      <point x="541" y="44"/>
      <point x="468" y="139"/>
      <point x="454" y="196" type="qcurve"/>
      <point x="442" y="196" type="line"/>
      <point x="342" y="-418" type="line"/>
    </contour>
    <contour>
      <point x="608" y="294" type="qcurve" smooth="yes"/>
      <point x="678" y="294"/>
      <point x="773" y="373"/>
      <point x="831" y="493"/>
      <point x="857" y="619"/>
      <point x="857" y="667" type="qcurve" smooth="yes"/>
      <point x="857" y="743"/>
      <point x="797" y="824"/>
      <point x="736" y="824" type="qcurve" smooth="yes"/>
      <point x="674" y="824"/>
      <point x="579" y="755"/>
      <point x="515" y="644"/>
      <point x="482" y="516"/>
      <point x="482" y="457" type="qcurve" smooth="yes"/>
      <point x="482" y="380"/>
      <point x="547" y="294"/>
    </contour>
  </outline>
</glyph>
<glyph name="q" format="2">
  <advance width="1322"/>
  <unicode hex="0071"/>
  <anchor x="903" y="-402" name="m.uni0326"/>
  <anchor x="814" y="1118" name="m.uni030F_1"/>
  <outline>
    <contour>
      <point x="1058" y="-418" type="line"/>
      <point x="656" y="-418" type="line"/>
      <point x="757" y="178" type="line"/>
      <point x="744" y="178" type="line"/>
      <point x="711" y="118"/>
      <point x="619" y="32"/>
      <point x="501" y="-14"/>
      <point x="428" y="-14" type="qcurve" smooth="yes"/>
      <point x="321" y="-14"/>
      <point x="151" y="84"/>
      <point x="52" y="279"/>
      <point x="52" y="426" type="qcurve" smooth="yes"/>
      <point x="52" y="553"/>
      <point x="119" y="803"/>
      <point x="251" y="1009"/>
      <point x="445" y="1132"/>
      <point x="572" y="1132" type="qcurve" smooth="yes"/>
      <point x="661" y="1132"/>
      <point x="785" y="1069"/>
      <point x="858" y="967"/>
      <point x="870" y="910" type="qcurve"/>
      <point x="880" y="910" type="line"/>
      <point x="915" y="1118" type="line"/>
      <point x="1313" y="1118" type="line"/>
    </contour>
    <contour>
      <point x="586" y="294" type="qcurve" smooth="yes"/>
      <point x="648" y="294"/>
      <point x="742" y="363"/>
      <point x="806" y="475"/>
      <point x="839" y="603"/>
      <point x="839" y="663" type="qcurve" smooth="yes"/>
      <point x="839" y="740"/>
      <point x="775" y="824"/>
      <point x="714" y="824" type="qcurve" smooth="yes"/>
      <point x="651" y="824"/>
      <point x="557" y="753"/>
      <point x="495" y="639"/>
      <point x="464" y="509"/>
      <point x="464" y="450" type="qcurve" smooth="yes"/>
      <point x="464" y="375"/>
      <point x="525" y="294"/>
    </contour>
  </outline>
</glyph>
<glyph name="exclamdown" format="2">
  <advance width="776"/>
  <unicode hex="00A1"/>
  <outline>
    <contour>
      <point x="190" y="466" type="line"/>
      <point x="330" y="1490" type="line"/>
      <point x="754" y="1490" type="line"/>
      <point x="554" y="466" type="line"/>
    </contour>
    <contour>
      <point x="91" y="0" type="line"/>
      <point x="155" y="351" type="line"/>
      <point x="563" y="351" type="line"/>
      <point x="499" y="0" type="line"/>
    </contour>
  </outline>
</glyph>
<glyph name="currency" format="2">
  <advance width="1624"/>
  <unicode hex="00A4"/>
  <outline>
    <contour>
      <point x="718" y="-20" type="qcurve" smooth="yes"/>
      <point x="589" y="-20"/>
      <point x="378" y="75"/>
      <point x="235" y="246"/>
      <point x="176" y="475"/>
      <point x="198" y="608" type="qcurve" smooth="yes"/>
      <point x="219" y="741"/>
      <point x="354" y="969"/>
      <point x="554" y="1139"/>
      <point x="796" y="1234"/>
      <point x="926" y="1234" type="qcurve" smooth="yes"/>
      <point x="1053" y="1234"/>
      <point x="1262" y="1139"/>
      <point x="1406" y="969"/>
      <point x="1467" y="741"/>
      <point x="1446" y="608" type="qcurve" smooth="yes"/>
      <point x="1424" y="475"/>
      <point x="1287" y="246"/>
      <point x="1086" y="75"/>
      <point x="845" y="-20"/>
    </contour>
    <contour>
      <point x="754" y="190" type="qcurve" smooth="yes"/>
      <point x="841" y="190"/>
      <point x="1003" y="252"/>
      <point x="1138" y="366"/>
      <point x="1230" y="518"/>
      <point x="1246" y="608" type="qcurve"/>
      <point x="1265" y="729"/>
      <point x="1182" y="918"/>
      <point x="1009" y="1027"/>
      <point x="894" y="1026" type="qcurve"/>
      <point x="774" y="1027"/>
      <point x="564" y="918"/>
      <point x="422" y="729"/>
      <point x="402" y="608" type="qcurve"/>
      <point x="381" y="489"/>
      <point x="460" y="299"/>
      <point x="634" y="190"/>
    </contour>
    <contour>
      <point x="1330" y="908" type="line"/>
      <point x="1202" y="1064" type="line"/>
      <point x="1446" y="1272" type="line"/>
      <point x="1576" y="1114" type="line"/>
    </contour>
    <contour>
      <point x="1228" y="-32" type="line"/>
      <point x="1054" y="174" type="line"/>
      <point x="1234" y="328" type="line"/>
      <point x="1410" y="126" type="line"/>
    </contour>
    <contour>
      <point x="204" y="-32" type="line"/>
      <point x="76" y="126" type="line"/>
      <point x="320" y="328" type="line"/>
      <point x="450" y="174" type="line"/>
    </contour>
    <contour>
      <point x="416" y="908" type="line"/>
      <point x="242" y="1114" type="line"/>
      <point x="422" y="1272" type="line"/>
      <point x="600" y="1064" type="line"/>
    </contour>
  </outline>
</glyph>
<glyph name="copyright" format="2">
  <advance width="1874"/>
  <unicode hex="00A9"/>
  <outline>
    <contour>
      <point x="576" y="744" type="qcurve" smooth="yes"/>
      <point x="594" y="854"/>
      <point x="731" y="1033"/>
      <point x="929" y="1140"/>
      <point x="1038" y="1140" type="qcurve" smooth="yes"/>
      <point x="1135" y="1140"/>
      <point x="1283" y="1054"/>
      <point x="1364" y="907"/>
      <point x="1358" y="814" type="qcurve"/>
      <point x="1116" y="814" type="line"/>
      <point x="1114" y="858"/>
      <point x="1053" y="908"/>
      <point x="1000" y="908" type="qcurve" smooth="yes"/>
      <point x="953" y="908"/>
      <point x="872" y="868"/>
      <point x="817" y="796"/>
      <point x="808" y="746" type="qcurve"/>
      <point x="801" y="700"/>
      <point x="825" y="625"/>
      <point x="888" y="582"/>
      <point x="936" y="582" type="qcurve" smooth="yes"/>
      <point x="989" y="582"/>
      <point x="1076" y="632"/>
      <point x="1092" y="674" type="qcurve"/>
      <point x="1336" y="674" type="line"/>
      <point x="1311" y="582"/>
      <point x="1181" y="435"/>
      <point x="1003" y="350"/>
      <point x="906" y="350" type="qcurve" smooth="yes"/>
      <point x="797" y="350"/>
      <point x="635" y="456"/>
      <point x="558" y="636"/>
    </contour>
    <contour>
      <point x="845" y="-24" type="qcurve" smooth="yes"/>
      <point x="687" y="-24"/>
      <point x="428" y="96"/>
      <point x="251" y="307"/>
      <point x="178" y="585"/>
      <point x="204" y="744" type="qcurve" smooth="yes"/>
      <point x="231" y="903"/>
      <point x="398" y="1182"/>
      <point x="644" y="1393"/>
      <point x="941" y="1512"/>
      <point x="1099" y="1512" type="qcurve" smooth="yes"/>
      <point x="1259" y="1512"/>
      <point x="1518" y="1393"/>
      <point x="1693" y="1182"/>
      <point x="1766" y="903"/>
      <point x="1740" y="744" type="qcurve" smooth="yes"/>
      <point x="1715" y="585"/>
      <point x="1550" y="307"/>
      <point x="1304" y="96"/>
      <point x="1005" y="-24"/>
    </contour>
    <contour>
      <point x="893" y="268" type="qcurve" smooth="yes"/>
      <point x="993" y="268"/>
      <point x="1179" y="342"/>
      <point x="1332" y="473"/>
      <point x="1434" y="645"/>
      <point x="1450" y="744" type="qcurve" smooth="yes"/>
      <point x="1466" y="843"/>
      <point x="1421" y="1017"/>
      <point x="1312" y="1148"/>
      <point x="1151" y="1222"/>
      <point x="1051" y="1222" type="qcurve" smooth="yes"/>
      <point x="953" y="1222"/>
      <point x="769" y="1147"/>
      <point x="616" y="1016"/>
      <point x="512" y="843"/>
      <point x="496" y="744" type="qcurve" smooth="yes"/>
      <point x="480" y="646"/>
      <point x="525" y="473"/>
      <point x="634" y="342"/>
      <point x="795" y="268"/>
    </contour>
  </outline>
</glyph>
<glyph name="ordfeminine" format="2">
  <advance width="1050"/>
  <unicode hex="00AA"/>
  <outline>
    <component base="amod" xOffset="103" yOffset="-40"/>
    <contour>
      <point x="900" y="604" type="line"/>
      <point x="864" y="402" type="line"/>
      <point x="130" y="402" type="line"/>
      <point x="166" y="604" type="line"/>
    </contour>
  </outline>
</glyph>
<glyph name="threesuperior" format="2">
  <advance width="1018"/>
  <unicode hex="00B3"/>
  <anchor x="675" y="1714" name="m.uni030F_1"/>
  <outline>
    <contour>
      <point x="554" y="876" type="qcurve" smooth="yes"/>
      <point x="438" y="876"/>
      <point x="264" y="951"/>
      <point x="177" y="1080"/>
      <point x="190" y="1161" type="qcurve"/>
      <point x="481" y="1161" type="line"/>
      <point x="484" y="1131"/>
      <point x="541" y="1099"/>
      <point x="590" y="1099" type="qcurve" smooth="yes"/>
      <point x="643" y="1099"/>
      <point x="705" y="1138"/>
      <point x="712" y="1175" type="qcurve"/>
      <point x="718" y="1213"/>
      <point x="665" y="1257"/>
      <point x="608" y="1257" type="qcurve" smooth="yes"/>
      <point x="474" y="1257" type="line"/>
      <point x="501" y="1419" type="line"/>
      <point x="710" y="1497" type="line"/>
      <point x="711" y="1504" type="line"/>
      <point x="299" y="1504" type="line"/>
      <point x="336" y="1728" type="line"/>
      <point x="1078" y="1728" type="line"/>
      <point x="1045" y="1529" type="line"/>
      <point x="648" y="1347" type="line"/>
      <point x="653" y="1375" type="line"/>
      <point x="765" y="1396"/>
      <point x="941" y="1347"/>
      <point x="1034" y="1228"/>
      <point x="1019" y="1141" type="qcurve" smooth="yes"/>
      <point x="1005" y="1053"/>
      <point x="867" y="935"/>
      <point x="666" y="876"/>
    </contour>
  </outline>
</glyph>
<glyph name="ae" format="2">
  <advance width="1856"/>
  <unicode hex="00E6"/>
  <anchor x="1036" y="1303" name="m.uni030F_1"/>
  <outline>
    <contour>
      <point x="346" y="-17" type="qcurve" smooth="yes"/>
      <point x="224" y="-17"/>
      <point x="60" y="53"/>
      <point x="-10" y="198"/>
      <point x="9" y="308" type="qcurve" smooth="yes"/>
      <point x="24" y="400"/>
      <point x="108" y="529"/>
      <point x="233" y="612"/>
      <point x="390" y="655"/>
      <point x="477" y="663" type="qcurve" smooth="yes"/>
      <point x="741" y="687" type="line"/>
      <point x="753" y="765" type="line" smooth="yes"/>
      <point x="760" y="809"/>
      <point x="701" y="855"/>
      <point x="649" y="855" type="qcurve" smooth="yes"/>
      <point x="592" y="855"/>
      <point x="510" y="806"/>
      <point x="495" y="753" type="qcurve"/>
      <point x="135" y="788" type="line"/>
      <point x="150" y="855"/>
      <point x="294" y="1028"/>
      <point x="537" y="1132"/>
      <point x="710" y="1132" type="qcurve" smooth="yes"/>
      <point x="767" y="1132"/>
      <point x="857" y="1111"/>
      <point x="926" y="1073"/>
      <point x="973" y="1018"/>
      <point x="986" y="983" type="qcurve"/>
      <point x="835" y="169" type="line"/>
      <point x="812" y="169" type="line"/>
      <point x="767" y="106"/>
      <point x="619" y="23"/>
      <point x="439" y="-17"/>
    </contour>
    <contour>
      <point x="492" y="236" type="qcurve" smooth="yes"/>
      <point x="537" y="236"/>
      <point x="624" y="273"/>
      <point x="687" y="345"/>
      <point x="695" y="396" type="qcurve"/>
      <point x="709" y="482" type="line"/>
      <point x="544" y="448" type="line" smooth="yes"/>
      <point x="496" y="438"/>
      <point x="431" y="408"/>
      <point x="394" y="361"/>
      <point x="390" y="332" type="qcurve" smooth="yes"/>
      <point x="383" y="286"/>
      <point x="439" y="236"/>
    </contour>
    <contour>
      <point x="1184" y="-20" type="qcurve" smooth="yes"/>
      <point x="1049" y="-20"/>
      <point x="841" y="84"/>
      <point x="806" y="195" type="qcurve"/>
      <point x="890" y="919" type="line"/>
      <point x="986" y="1037"/>
      <point x="1207" y="1132"/>
      <point x="1335" y="1132" type="qcurve" smooth="yes"/>
      <point x="1462" y="1132"/>
      <point x="1653" y="1053"/>
      <point x="1774" y="903"/>
      <point x="1817" y="692"/>
      <point x="1795" y="559" type="qcurve" smooth="yes"/>
      <point x="1780" y="465" type="line"/>
      <point x="820" y="465" type="line"/>
      <point x="855" y="687" type="line"/>
      <point x="1446" y="687" type="line"/>
      <point x="1453" y="735"/>
      <point x="1419" y="808"/>
      <point x="1347" y="849"/>
      <point x="1297" y="849" type="qcurve" smooth="yes"/>
      <point x="1248" y="849"/>
      <point x="1160" y="808"/>
      <point x="1098" y="735"/>
      <point x="1088" y="687" type="qcurve"/>
      <point x="1050" y="448" type="line" smooth="yes"/>
      <point x="1041" y="394"/>
      <point x="1072" y="310"/>
      <point x="1148" y="262"/>
      <point x="1207" y="262" type="qcurve" smooth="yes"/>
      <point x="1248" y="262"/>
      <point x="1321" y="284"/>
      <point x="1379" y="329"/>
      <point x="1396" y="361" type="qcurve"/>
      <point x="1753" y="334" type="line"/>
      <point x="1724" y="244"/>
      <point x="1553" y="73"/>
      <point x="1319" y="-20"/>
    </contour>
  </outline>
</glyph>
<glyph name="eth" format="2">
  <advance width="1255"/>
  <unicode hex="00F0"/>
  <outline>
    <contour>
      <point x="1079" y="1394" type="line"/>
      <point x="277" y="1006" type="line"/>
      <point x="305" y="1170" type="line"/>
      <point x="1107" y="1556" type="line"/>
    </contour>
    <contour>
      <point x="523" y="-24" type="qcurve"/>
      <point x="357" y="-23"/>
      <point x="127" y="110"/>
      <point x="26" y="351"/>
      <point x="53" y="512" type="qcurve" smooth="yes"/>
      <point x="76" y="653"/>
      <point x="226" y="886"/>
      <point x="455" y="1026"/>
      <point x="597" y="1026" type="qcurve" smooth="yes"/>
      <point x="654" y="1026"/>
      <point x="748" y="1002"/>
      <point x="823" y="960"/>
      <point x="849" y="930" type="qcurve"/>
      <point x="865" y="930" type="line"/>
      <point x="826" y="1043"/>
      <point x="649" y="1219"/>
      <point x="434" y="1341"/>
      <point x="337" y="1370" type="qcurve"/>
      <point x="369" y="1564" type="line"/>
      <point x="560" y="1539"/>
      <point x="891" y="1382"/>
      <point x="1127" y="1131"/>
      <point x="1233" y="795"/>
      <point x="1199" y="590" type="qcurve" smooth="yes"/>
      <point x="1169" y="408"/>
      <point x="985" y="131"/>
      <point x="703" y="-23"/>
    </contour>
    <contour>
      <point x="583" y="270" type="qcurve" smooth="yes"/>
      <point x="642" y="270"/>
      <point x="739" y="334"/>
      <point x="808" y="456"/>
      <point x="823" y="542" type="qcurve" smooth="yes"/>
      <point x="837" y="623"/>
      <point x="811" y="737"/>
      <point x="735" y="798"/>
      <point x="671" y="798" type="qcurve" smooth="yes"/>
      <point x="607" y="798"/>
      <point x="511" y="737"/>
      <point x="449" y="623"/>
      <point x="435" y="542" type="qcurve"/>
      <point x="422" y="457"/>
      <point x="449" y="334"/>
      <point x="525" y="270"/>
    </contour>
  </outline>
</glyph>
<glyph name="Hbar" format="2">
  <advance width="1707"/>
  <unicode hex="0126"/>
  <anchor x="840" y="0" name="m.uni0326"/>
  <anchor x="1087" y="1490" name="m.uni030F_1"/>
  <anchor x="399" y="0" name="m.uni0327_3"/>
  <outline>
    <contour>
      <point x="1768" y="1268" type="line"/>
      <point x="1736" y="1076" type="line"/>
      <point x="142" y="1076" type="line"/>
      <point x="174" y="1268" type="line"/>
    </contour>
    <contour>
      <point x="87" y="0" type="line"/>
      <point x="334" y="1490" type="line"/>
      <point x="738" y="1490" type="line"/>
      <point x="644" y="924" type="line"/>
      <point x="1180" y="924" type="line"/>
      <point x="1274" y="1490" type="line"/>
      <point x="1678" y="1490" type="line"/>
      <point x="1431" y="0" type="line"/>
      <point x="1027" y="0" type="line"/>
      <point x="1126" y="598" type="line"/>
      <point x="590" y="598" type="line"/>
      <point x="491" y="0" type="line"/>
    </contour>
  </outline>
</glyph>
<glyph name="tbar" format="2">
  <advance width="821"/>
  <unicode hex="0167"/>
  <anchor x="464" y="0" name="m.uni0326"/>
  <anchor x="613" y="1384" name="m.uni030F_1"/>
  <anchor x="545" y="0" name="m.uni0327_3"/>
  <outline>
    <contour>
      <point x="780" y="703" type="line"/>
      <point x="744" y="483" type="line"/>
      <point x="8" y="483" type="line"/>
      <point x="44" y="703" type="line"/>
    </contour>
    <contour>
      <point x="301" y="1384" type="line"/>
      <point x="703" y="1384" type="line"/>
      <point x="533" y="359" type="line"/>
      <point x="528" y="324"/>
      <point x="558" y="289"/>
      <point x="598" y="289" type="qcurve" smooth="yes"/>
      <point x="616" y="289"/>
      <point x="686" y="298"/>
      <point x="698" y="302" type="qcurve"/>
      <point x="698" y="15" type="line"/>
      <point x="626" y="-4"/>
      <point x="502" y="-17"/>
      <point x="448" y="-17" type="qcurve" smooth="yes"/>
      <point x="260" y="-17"/>
      <point x="97" y="155"/>
      <point x="125" y="322" type="qcurve" smooth="yes"/>
    </contour>
    <contour>
      <point x="850" y="1118" type="line"/>
      <point x="802" y="826" type="line"/>
      <point x="66" y="826" type="line"/>
      <point x="114" y="1118" type="line"/>
    </contour>
  </outline>
</glyph>
<glyph name="tonetwo" format="2">
  <advance width="1202"/>
  <unicode hex="01A8"/>
  <anchor x="511" y="0" name="m.uniF6C3"/>
  <anchor x="727" y="1303" name="m.uni030F_1"/>
  <outline>
    <contour>
      <point x="129" y="796" type="line"/>
      <point x="175" y="944"/>
      <point x="468" y="1132"/>
      <point x="710" y="1132" type="qcurve" smooth="yes"/>
      <point x="870" y="1132"/>
      <point x="1087" y="1047"/>
      <point x="1184" y="884"/>
      <point x="1165" y="768" type="qcurve" smooth="yes"/>
      <point x="1144" y="636"/>
      <point x="945" y="469"/>
      <point x="769" y="439" type="qcurve" smooth="yes"/>
      <point x="566" y="404" type="line" smooth="yes"/>
      <point x="436" y="381"/>
      <point x="425" y="323" type="qcurve" smooth="yes"/>
      <point x="419" y="288"/>
      <point x="486" y="250"/>
      <point x="541" y="250" type="qcurve" smooth="yes"/>
      <point x="609" y="250"/>
      <point x="708" y="308"/>
      <point x="724" y="361" type="qcurve"/>
      <point x="1113" y="328" type="line"/>
      <point x="1063" y="179"/>
      <point x="756" y="-20"/>
      <point x="499" y="-20" type="qcurve" smooth="yes"/>
      <point x="345" y="-20"/>
      <point x="117" y="75"/>
      <point x="6" y="250"/>
      <point x="25" y="369" type="qcurve" smooth="yes"/>
      <point x="47" y="493"/>
      <point x="239" y="641"/>
      <point x="416" y="672" type="qcurve" smooth="yes"/>
      <point x="650" y="713" type="line" smooth="yes"/>
      <point x="716" y="724"/>
      <point x="765" y="767"/>
      <point x="769" y="791" type="qcurve" smooth="yes"/>
      <point x="775" y="826"/>
      <point x="709" y="864"/>
      <point x="657" y="864" type="qcurve" smooth="yes"/>
      <point x="598" y="864"/>
      <point x="508" y="810"/>
      <point x="492" y="769" type="qcurve"/>
    </contour>
  </outline>
</glyph>
<glyph name="Ezhreversed" format="2">
  <advance width="1414"/>
  <unicode hex="01B8"/>
  <anchor x="922" y="1676" name="m.uni030F_1"/>
  <outline>
    <contour>
      <point x="1288" y="136" type="line"/>
      <point x="1257" y="-31"/>
      <point x="1043" y="-293"/>
      <point x="728" y="-442"/>
      <point x="542" y="-442" type="qcurve" smooth="yes"/>
      <point x="399" y="-442"/>
      <point x="174" y="-344"/>
      <point x="26" y="-166"/>
      <point x="-32" y="77"/>
      <point x="-8" y="222" type="qcurve" smooth="yes"/>
      <point x="18" y="378"/>
      <point x="181" y="623"/>
      <point x="428" y="776"/>
      <point x="580" y="792" type="qcurve"/>
      <point x="584" y="806" type="line"/>
      <point x="192" y="1198" type="line"/>
      <point x="240" y="1490" type="line"/>
      <point x="1430" y="1490" type="line"/>
      <point x="1374" y="1158" type="line"/>
      <point x="670" y="1158" type="line"/>
      <point x="670" y="1146" type="line"/>
      <point x="978" y="832" type="line"/>
      <point x="930" y="552" type="line"/>
      <point x="736" y="552" type="line"/>
      <point x="660" y="553"/>
      <point x="527" y="471"/>
      <point x="434" y="320"/>
      <point x="416" y="214" type="qcurve" smooth="yes"/>
      <point x="401" y="120"/>
      <point x="433" y="-25"/>
      <point x="527" y="-108"/>
      <point x="604" y="-108" type="qcurve" smooth="yes"/>
      <point x="670" y="-108"/>
      <point x="785" y="-46"/>
      <point x="865" y="64"/>
      <point x="880" y="136" type="qcurve"/>
    </contour>
  </outline>
</glyph>
<glyph name="glottalinvertedstroke" format="2">
  <advance width="1228"/>
  <unicode hex="01BE"/>
  <outline>
    <contour>
      <point x="718" y="312" type="qcurve"/>
      <point x="724" y="348"/>
      <point x="677" y="396"/>
      <point x="597" y="441"/>
      <point x="508" y="501"/>
      <point x="435" y="594"/>
      <point x="401" y="739"/>
      <point x="418" y="846" type="qcurve"/>
      <point x="506" y="1358" type="line"/>
      <point x="884" y="1358" type="line"/>
      <point x="798" y="838" type="line" smooth="yes"/>
      <point x="786" y="762"/>
      <point x="825" y="671"/>
      <point x="900" y="616"/>
      <point x="986" y="570"/>
      <point x="1059" y="508"/>
      <point x="1095" y="404"/>
      <point x="1080" y="318" type="qcurve"/>
      <point x="1065" y="222"/>
      <point x="917" y="69"/>
      <point x="676" y="-20"/>
      <point x="520" y="-20" type="qcurve" smooth="yes"/>
      <point x="356" y="-20"/>
      <point x="149" y="95"/>
      <point x="60" y="267"/>
      <point x="72" y="350" type="qcurve"/>
      <point x="422" y="350" type="line"/>
      <point x="419" y="305"/>
      <point x="460" y="252"/>
      <point x="530" y="230"/>
      <point x="570" y="230" type="qcurve" smooth="yes"/>
      <point x="610" y="230"/>
      <point x="674" y="246"/>
      <point x="715" y="283"/>
    </contour>
    <contour>
      <point x="1022" y="1082" type="line"/>
      <point x="978" y="814" type="line"/>
      <point x="282" y="814" type="line"/>
      <point x="326" y="1082" type="line"/>
    </contour>
  </outline>
</glyph>
<glyph name="qpdigraph" format="2">
  <advance width="2018"/>
  <unicode hex="0239"/>
  <outline>
    <contour>
      <point x="660" y="-416" type="line"/>
      <point x="876" y="882" type="line"/>
      <point x="962" y="1118" type="line"/>
      <point x="1266" y="1118" type="line"/>
      <point x="1258" y="910" type="line"/>
      <point x="1038" y="-416" type="line"/>
    </contour>
    <contour>
      <point x="130" y="544" type="qcurve"/>
      <point x="134" y="564" type="line" smooth="yes"/>
      <point x="170" y="733"/>
      <point x="313" y="989"/>
      <point x="521" y="1132"/>
      <point x="652" y="1132" type="qcurve" smooth="yes"/>
      <point x="794" y="1132"/>
      <point x="944" y="974"/>
      <point x="998" y="708"/>
      <point x="994" y="546" type="qcurve"/>
      <point x="994" y="542" type="line"/>
      <point x="946" y="395"/>
      <point x="805" y="138"/>
      <point x="602" y="-20"/>
      <point x="458" y="-20" type="qcurve" smooth="yes"/>
      <point x="329" y="-20"/>
      <point x="163" y="124"/>
      <point x="102" y="378"/>
    </contour>
    <contour>
      <point x="512" y="564" type="qcurve"/>
      <point x="508" y="544" type="line" smooth="yes"/>
      <point x="492" y="472"/>
      <point x="494" y="352"/>
      <point x="554" y="280"/>
      <point x="624" y="280" type="qcurve"/>
      <point x="713" y="279"/>
      <point x="823" y="412"/>
      <point x="850" y="536" type="qcurve" smooth="yes"/>
      <point x="854" y="556" type="line" smooth="yes"/>
      <point x="873" y="647"/>
      <point x="850" y="771"/>
      <point x="776" y="835"/>
      <point x="716" y="834" type="qcurve"/>
      <point x="655" y="835"/>
      <point x="574" y="770"/>
      <point x="525" y="649"/>
    </contour>
    <contour>
      <point x="1890" y="564" type="qcurve" smooth="yes"/>
      <point x="1886" y="542" type="line" smooth="yes"/>
      <point x="1859" y="376"/>
      <point x="1714" y="122"/>
      <point x="1501" y="-20"/>
      <point x="1372" y="-20" type="qcurve" smooth="yes"/>
      <point x="1264" y="-20"/>
      <point x="1126" y="71"/>
      <point x="1050" y="229"/>
      <point x="1021" y="431"/>
      <point x="1022" y="542" type="qcurve"/>
      <point x="1024" y="546" type="line"/>
      <point x="1074" y="708"/>
      <point x="1214" y="974"/>
      <point x="1417" y="1132"/>
      <point x="1560" y="1132" type="qcurve" smooth="yes"/>
      <point x="1690" y="1132"/>
      <point x="1860" y="989"/>
      <point x="1922" y="734"/>
    </contour>
    <contour>
      <point x="1508" y="544" type="qcurve" smooth="yes"/>
      <point x="1512" y="564" type="line"/>
      <point x="1526" y="649"/>
      <point x="1517" y="770"/>
      <point x="1458" y="835"/>
      <point x="1396" y="834" type="qcurve"/>
      <point x="1307" y="835"/>
      <point x="1197" y="693"/>
      <point x="1168" y="556" type="qcurve" smooth="yes"/>
      <point x="1164" y="536" type="line" smooth="yes"/>
      <point x="1146" y="454"/>
      <point x="1169" y="339"/>
      <point x="1245" y="280"/>
      <point x="1304" y="280" type="qcurve" smooth="yes"/>
      <point x="1374" y="280"/>
      <point x="1451" y="352"/>
      <point x="1493" y="472"/>
    </contour>
  </outline>
</glyph>
<glyph name="dtail" format="2">
  <advance width="1322"/>
  <unicode hex="0256"/>
  <anchor x="717" y="0" name="m.uni0326"/>
  <anchor x="559" y="1346" name="m.uni030F_1"/>
  <outline>
    <contour>
      <point x="1074" y="-441" type="qcurve" smooth="yes"/>
      <point x="863" y="-441"/>
      <point x="686" y="-257"/>
      <point x="717" y="-73" type="qcurve" smooth="yes"/>
      <point x="766" y="224" type="line"/>
      <point x="1164" y="224" type="line"/>
      <point x="1115" y="-73" type="line" smooth="yes"/>
      <point x="1108" y="-118"/>
      <point x="1147" y="-153"/>
      <point x="1205" y="-153" type="qcurve" smooth="yes"/>
      <point x="1234" y="-153"/>
      <point x="1290" y="-148"/>
      <point x="1321" y="-144" type="qcurve"/>
      <point x="1276" y="-417" type="line"/>
      <point x="1230" y="-429"/>
      <point x="1129" y="-441"/>
    </contour>
    <contour>
      <point x="428" y="-14" type="qcurve" smooth="yes"/>
      <point x="268" y="-14"/>
      <point x="52" y="206"/>
      <point x="52" y="426" type="qcurve" smooth="yes"/>
      <point x="52" y="553"/>
      <point x="119" y="803"/>
      <point x="251" y="1009"/>
      <point x="445" y="1132"/>
      <point x="572" y="1132" type="qcurve" smooth="yes"/>
      <point x="661" y="1132"/>
      <point x="783" y="1069"/>
      <point x="854" y="967"/>
      <point x="866" y="910" type="qcurve"/>
      <point x="876" y="910" type="line"/>
      <point x="972" y="1490" type="line"/>
      <point x="1374" y="1490" type="line"/>
      <point x="1127" y="0" type="line"/>
      <point x="729" y="0" type="line"/>
      <point x="763" y="184" type="line"/>
      <point x="750" y="184" type="line"/>
      <point x="718" y="120"/>
      <point x="623" y="32"/>
      <point x="501" y="-14"/>
    </contour>
    <contour>
      <point x="586" y="294" type="qcurve" smooth="yes"/>
      <point x="648" y="294"/>
      <point x="742" y="363"/>
      <point x="806" y="475"/>
      <point x="839" y="603"/>
      <point x="839" y="663" type="qcurve" smooth="yes"/>
      <point x="839" y="740"/>
      <point x="775" y="824"/>
      <point x="714" y="824" type="qcurve" smooth="yes"/>
      <point x="651" y="824"/>
      <point x="557" y="753"/>
      <point x="495" y="639"/>
      <point x="464" y="509"/>
      <point x="464" y="450" type="qcurve" smooth="yes"/>
      <point x="464" y="375"/>
      <point x="525" y="294"/>
    </contour>
  </outline>
</glyph>
<glyph name="schwahook" format="2">
  <advance width="1882"/>
  <unicode hex="025A"/>
  <outline>
    <contour>
      <point x="722" y="1102" type="qcurve"/>
      <point x="910" y="1103"/>
      <point x="1149" y="953"/>
      <point x="1247" y="712"/>
      <point x="1224" y="574" type="qcurve" smooth="yes"/>
      <point x="1218" y="538" type="line" smooth="yes"/>
      <point x="1193" y="390"/>
      <point x="1033" y="135"/>
      <point x="764" y="-20"/>
      <point x="574" y="-20" type="qcurve" smooth="yes"/>
      <point x="413" y="-20"/>
      <point x="199" y="106"/>
      <point x="112" y="342"/>
      <point x="140" y="506" type="qcurve"/>
      <point x="148" y="562" type="line"/>
      <point x="1146" y="798" type="line"/>
      <point x="1106" y="558" type="line"/>
      <point x="488" y="418" type="line"/>
      <point x="486" y="404" type="line"/>
      <point x="478" y="361"/>
      <point x="502" y="307"/>
      <point x="570" y="282"/>
      <point x="626" y="282" type="qcurve" smooth="yes"/>
      <point x="690" y="282"/>
      <point x="771" y="339"/>
      <point x="817" y="423"/>
      <point x="840" y="509"/>
      <point x="846" y="538" type="qcurve"/>
      <point x="852" y="574" type="line" smooth="yes"/>
      <point x="863" y="647"/>
      <point x="818" y="749"/>
      <point x="718" y="803"/>
      <point x="646" y="802" type="qcurve"/>
      <point x="570" y="803"/>
      <point x="425" y="761"/>
      <point x="366" y="704" type="qcurve"/>
      <point x="242" y="922" type="line"/>
      <point x="279" y="965"/>
      <point x="420" y="1048"/>
      <point x="611" y="1103"/>
    </contour>
    <contour>
      <point x="1094" y="556" type="line"/>
      <point x="1132" y="792" type="line"/>
      <point x="1530" y="882" type="line"/>
      <point x="1531" y="766"/>
      <point x="1528" y="610"/>
      <point x="1566" y="532"/>
      <point x="1626" y="532" type="qcurve" smooth="yes"/>
      <point x="1638" y="532"/>
      <point x="1669" y="535"/>
      <point x="1688" y="536" type="qcurve"/>
      <point x="1694" y="302" type="line"/>
      <point x="1648" y="279"/>
      <point x="1551" y="253"/>
      <point x="1502" y="254" type="qcurve"/>
      <point x="1395" y="254"/>
      <point x="1294" y="345"/>
      <point x="1264" y="500"/>
      <point x="1260" y="596" type="qcurve"/>
    </contour>
  </outline>
</glyph>
<glyph name="eshcurl" format="2">
  <advance width="1253"/>
  <unicode hex="0286"/>
  <outline>
    <contour>
      <point x="860" y="-12" type="line" smooth="yes"/>
      <point x="837" y="-151"/>
      <point x="706" y="-331"/>
      <point x="482" y="-418"/>
      <point x="317" y="-418" type="qcurve" smooth="yes"/>
      <point x="112" y="-418"/>
      <point x="-78" y="-288"/>
      <point x="-57" y="-162" type="qcurve" smooth="yes"/>
      <point x="-41" y="-70"/>
      <point x="88" y="77"/>
      <point x="300" y="162"/>
      <point x="439" y="162" type="qcurve" smooth="yes"/>
      <point x="563" y="162"/>
      <point x="757" y="75"/>
      <point x="826" y="22" type="qcurve" smooth="yes"/>
      <point x="1124" y="-208" type="line"/>
      <point x="921" y="-430" type="line"/>
      <point x="639" y="-212" type="line" smooth="yes"/>
      <point x="567" y="-156"/>
      <point x="474" y="-98"/>
      <point x="410" y="-78"/>
      <point x="381" y="-78" type="qcurve" smooth="yes"/>
      <point x="331" y="-78"/>
      <point x="277" y="-115"/>
      <point x="272" y="-144" type="qcurve"/>
      <point x="268" y="-172"/>
      <point x="308" y="-202"/>
      <point x="341" y="-202" type="qcurve" smooth="yes"/>
      <point x="379" y="-202"/>
      <point x="433" y="-162"/>
      <point x="440" y="-122" type="qcurve" smooth="yes"/>
      <point x="648" y="1135" type="line" smooth="yes"/>
      <point x="673" y="1287"/>
      <point x="814" y="1495"/>
      <point x="1038" y="1603"/>
      <point x="1187" y="1603" type="qcurve" smooth="yes"/>
      <point x="1244" y="1603"/>
      <point x="1337" y="1594"/>
      <point x="1386" y="1581" type="qcurve"/>
      <point x="1312" y="1293" type="line"/>
      <point x="1288" y="1297"/>
      <point x="1222" y="1301"/>
      <point x="1183" y="1301" type="qcurve" smooth="yes"/>
      <point x="1128" y="1301"/>
      <point x="1069" y="1249"/>
      <point x="1060" y="1195" type="qcurve" smooth="yes"/>
    </contour>
  </outline>
</glyph>
<glyph name="ubar" format="2">
  <advance width="1487"/>
  <unicode hex="0289"/>
  <anchor x="742" y="0" name="m.uni0326"/>
  <anchor x="896" y="1118" name="m.uni030F_1"/>
  <anchor x="1386" y="0" name="m.uni0328_4"/>
  <outline>
    <contour>
      <point x="1495" y="726" type="line"/>
      <point x="1471" y="583" type="line"/>
      <point x="24" y="583" type="line"/>
      <point x="48" y="726" type="line"/>
    </contour>
    <contour>
      <point x="477" y="-14" type="qcurve" smooth="yes"/>
      <point x="359" y="-14"/>
      <point x="201" y="94"/>
      <point x="136" y="284"/>
      <point x="156" y="406" type="qcurve" smooth="yes"/>
      <point x="274" y="1118" type="line"/>
      <point x="676" y="1118" type="line"/>
      <point x="572" y="490" type="line"/>
      <point x="559" y="407"/>
      <point x="627" y="312"/>
      <point x="703" y="312" type="qcurve" smooth="yes"/>
      <point x="753" y="312"/>
      <point x="832" y="355"/>
      <point x="885" y="435"/>
      <point x="894" y="490" type="qcurve" smooth="yes"/>
      <point x="998" y="1118" type="line"/>
      <point x="1400" y="1118" type="line"/>
      <point x="1215" y="0" type="line"/>
      <point x="838" y="0" type="line"/>
      <point x="877" y="286" type="line"/>
      <point x="889" y="286" type="line"/>
      <point x="830" y="159"/>
      <point x="631" y="-14"/>
    </contour>
  </outline>
</glyph>
<glyph name="eopenclosed" format="2">
  <advance width="1230"/>
  <unicode hex="029A"/>
  <outline>
    <contour>
      <point x="512" y="-20" type="qcurve" smooth="yes"/>
      <point x="369" y="-20"/>
      <point x="142" y="50"/>
      <point x="11" y="186"/>
      <point x="11" y="284" type="qcurve" smooth="yes"/>
      <point x="11" y="371"/>
      <point x="93" y="488"/>
      <point x="232" y="558"/>
      <point x="406" y="588"/>
      <point x="499" y="588" type="qcurve" smooth="yes"/>
      <point x="670" y="588" type="line"/>
      <point x="649" y="462" type="line"/>
      <point x="589" y="462" type="line" smooth="yes"/>
      <point x="536" y="462"/>
      <point x="445" y="437"/>
      <point x="390" y="382"/>
      <point x="390" y="337" type="qcurve" smooth="yes"/>
      <point x="390" y="300"/>
      <point x="462" y="254"/>
      <point x="549" y="254" type="qcurve" smooth="yes"/>
      <point x="612" y="254"/>
      <point x="702" y="311"/>
      <point x="762" y="404"/>
      <point x="797" y="514"/>
      <point x="812" y="622"/>
      <point x="812" y="665" type="qcurve" smooth="yes"/>
      <point x="812" y="730"/>
      <point x="776" y="815"/>
      <point x="704" y="858"/>
      <point x="650" y="858" type="qcurve" smooth="yes"/>
      <point x="595" y="858"/>
      <point x="519" y="828"/>
      <point x="480" y="782"/>
      <point x="480" y="757" type="qcurve" smooth="yes"/>
      <point x="480" y="722"/>
      <point x="560" y="676"/>
      <point x="624" y="676" type="qcurve" smooth="yes"/>
      <point x="684" y="676" type="line"/>
      <point x="663" y="546" type="line"/>
      <point x="513" y="546" type="line" smooth="yes"/>
      <point x="398" y="546"/>
      <point x="216" y="601"/>
      <point x="112" y="712"/>
      <point x="112" y="795" type="qcurve" smooth="yes"/>
      <point x="112" y="887"/>
      <point x="211" y="1015"/>
      <point x="373" y="1095"/>
      <point x="567" y="1132"/>
      <point x="661" y="1132" type="qcurve" smooth="yes"/>
      <point x="788" y="1132"/>
      <point x="980" y="1073"/>
      <point x="1110" y="959"/>
      <point x="1176" y="793"/>
      <point x="1176" y="685" type="qcurve" smooth="yes"/>
      <point x="1176" y="594"/>
      <point x="1140" y="398"/>
      <point x="1053" y="214"/>
      <point x="902" y="67"/>
      <point x="673" y="-20"/>
    </contour>
  </outline>
</glyph>
<glyph name="finalkaf-hb" format="2">
  <advance width="1678"/>
  <unicode hex="02AA"/>
  <outline>
    <contour>
      <point x="1138" y="312" type="qcurve"/>
      <point x="1143" y="347"/>
      <point x="1054" y="384"/>
      <point x="940" y="410" type="qcurve" smooth="yes"/>
      <point x="842" y="432"/>
      <point x="671" y="514"/>
      <point x="578" y="649"/>
      <point x="596" y="750" type="qcurve" smooth="yes"/>
      <point x="612" y="844"/>
      <point x="749" y="1004"/>
      <point x="977" y="1103"/>
      <point x="1128" y="1102" type="qcurve"/>
      <point x="1284" y="1103"/>
      <point x="1494" y="1013"/>
      <point x="1591" y="852"/>
      <point x="1574" y="744" type="qcurve"/>
      <point x="1202" y="744" type="line"/>
      <point x="1210" y="806"/>
      <point x="1159" y="858"/>
      <point x="1086" y="858" type="qcurve" smooth="yes"/>
      <point x="1043" y="858"/>
      <point x="959" y="817"/>
      <point x="952" y="770" type="qcurve"/>
      <point x="942" y="721"/>
      <point x="1053" y="681"/>
      <point x="1152" y="664" type="qcurve"/>
      <point x="1341" y="629"/>
      <point x="1524" y="473"/>
      <point x="1498" y="318" type="qcurve" smooth="yes"/>
      <point x="1482" y="222"/>
      <point x="1329" y="69"/>
      <point x="1071" y="-20"/>
      <point x="894" y="-20" type="qcurve" smooth="yes"/>
      <point x="769" y="-20"/>
      <point x="551" y="16"/>
      <point x="332" y="98"/>
      <point x="206" y="166" type="qcurve"/>
      <point x="352" y="442" type="line"/>
      <point x="448" y="371"/>
      <point x="658" y="281"/>
      <point x="857" y="239"/>
      <point x="936" y="238" type="qcurve"/>
      <point x="1049" y="239"/>
      <point x="1130" y="270"/>
    </contour>
    <contour>
      <point x="672" y="1490" type="line"/>
      <point x="424" y="0" type="line"/>
      <point x="24" y="0" type="line"/>
      <point x="270" y="1490" type="line"/>
    </contour>
  </outline>
</glyph>
<glyph name="glottalstopreversedmod" format="2">
  <advance width="1050"/>
  <unicode hex="02C1"/>
  <outline>
    <contour>
      <point x="1030" y="1528" type="qcurve"/>
      <point x="774" y="1528" type="line"/>
      <point x="782" y="1560"/>
      <point x="749" y="1609"/>
      <point x="704" y="1608" type="qcurve"/>
      <point x="640" y="1609"/>
      <point x="597" y="1504"/>
      <point x="584" y="1416" type="qcurve"/>
      <point x="542" y="1158" type="line" smooth="yes"/>
      <point x="534" y="1112"/>
      <point x="563" y="1058"/>
      <point x="624" y="1036"/>
      <point x="664" y="1036" type="qcurve" smooth="yes"/>
      <point x="728" y="1036" type="line"/>
      <point x="696" y="832" type="line"/>
      <point x="582" y="832" type="line" smooth="yes"/>
      <point x="404" y="832"/>
      <point x="258" y="1015"/>
      <point x="286" y="1172" type="qcurve"/>
      <point x="326" y="1428" type="line"/>
      <point x="345" y="1542"/>
      <point x="439" y="1713"/>
      <point x="609" y="1810"/>
      <point x="742" y="1810" type="qcurve"/>
      <point x="888" y="1809"/>
      <point x="1053" y="1669"/>
    </contour>
    <contour>
      <point x="480" y="1036" type="line"/>
      <point x="744" y="1036" type="line"/>
      <point x="680" y="654" type="line"/>
      <point x="416" y="654" type="line"/>
    </contour>
  </outline>
</glyph>
<glyph name="horncomb" format="2">
  <unicode hex="031B"/>
  <outline>
    <contour>
      <point x="-6" y="1618" type="line"/>
      <point x="-27" y="1492"/>
      <point x="-66" y="1318"/>
      <point x="-123" y="1188"/>
      <point x="-219" y="1075"/>
      <point x="-296" y="1012" type="qcurve"/>
      <point x="-456" y="1096" type="line"/>
      <point x="-427" y="1154"/>
      <point x="-384" y="1246"/>
      <point x="-350" y="1350"/>
      <point x="-318" y="1501"/>
      <point x="-300" y="1618" type="qcurve"/>
    </contour>
  </outline>
</glyph>
<glyph name="dieresistonos" format="2">
  <advance width="1582"/>
  <unicode hex="0385"/>
  <unicode hex="E2BB"/>
  <anchor x="613" y="1586" name="t.uni030F_1"/>
  <outline>
    <contour>
      <point x="388" y="1256" type="line"/>
      <point x="443" y="1586" type="line"/>
      <point x="783" y="1586" type="line"/>
      <point x="728" y="1256" type="line"/>
    </contour>
    <contour>
      <point x="1094" y="1256" type="line"/>
      <point x="1149" y="1586" type="line"/>
      <point x="1489" y="1586" type="line"/>
      <point x="1434" y="1256" type="line"/>
    </contour>
    <contour>
      <point x="817" y="1491" type="line"/>
      <point x="903" y="1817" type="line"/>
      <point x="1239" y="1817" type="line"/>
      <point x="1041" y="1491" type="line"/>
    </contour>
  </outline>
</glyph>
<glyph name="Sigma" format="2">
  <advance width="1467"/>
  <unicode hex="03A3"/>
  <outline>
    <contour>
      <point x="12" y="0" type="line"/>
      <point x="60" y="292" type="line"/>
      <point x="424" y="601" type="line" smooth="yes"/>
      <point x="460" y="631"/>
      <point x="564" y="708"/>
      <point x="677" y="788"/>
      <point x="779" y="857"/>
      <point x="813" y="878" type="qcurve"/>
      <point x="774" y="643" type="line"/>
      <point x="739" y="671"/>
      <point x="625" y="767"/>
      <point x="513" y="872"/>
      <point x="479" y="911" type="qcurve" smooth="yes"/>
      <point x="242" y="1186" type="line"/>
      <point x="293" y="1490" type="line"/>
      <point x="1499" y="1490" type="line"/>
      <point x="1445" y="1164" type="line"/>
      <point x="1025" y="1164" type="line" smooth="yes"/>
      <point x="924" y="1164"/>
      <point x="700" y="1169"/>
      <point x="599" y="1172" type="qcurve"/>
      <point x="585" y="1254" type="line"/>
      <point x="623" y="1219"/>
      <point x="735" y="1127"/>
      <point x="847" y="1031"/>
      <point x="883" y="987" type="qcurve"/>
      <point x="1035" y="808" type="line"/>
      <point x="1011" y="664" type="line"/>
      <point x="798" y="482" type="line" smooth="yes"/>
      <point x="746" y="438"/>
      <point x="608" y="342"/>
      <point x="471" y="251"/>
      <point x="421" y="215" type="qcurve"/>
      <point x="458" y="318" type="line"/>
      <point x="559" y="321"/>
      <point x="785" y="326"/>
      <point x="886" y="326" type="qcurve" smooth="yes"/>
      <point x="1324" y="326" type="line"/>
      <point x="1270" y="0" type="line"/>
    </contour>
  </outline>
</glyph>
<glyph name="Phi" format="2">
  <advance width="1852"/>
  <unicode hex="03A6"/>
  <outline>
    <contour>
      <point x="715" y="63" type="line" smooth="yes"/>
      <point x="501" y="63"/>
      <point x="203" y="237"/>
      <point x="68" y="545"/>
      <point x="101" y="745" type="qcurve" smooth="yes"/>
      <point x="135" y="945"/>
      <point x="371" y="1253"/>
      <point x="728" y="1427"/>
      <point x="941" y="1427" type="qcurve" smooth="yes"/>
      <point x="1199" y="1427" type="line" smooth="yes"/>
      <point x="1413" y="1427"/>
      <point x="1712" y="1253"/>
      <point x="1847" y="945"/>
      <point x="1813" y="745" type="qcurve" smooth="yes"/>
      <point x="1788" y="595"/>
      <point x="1641" y="345"/>
      <point x="1416" y="163"/>
      <point x="1133" y="63"/>
      <point x="973" y="63" type="qcurve" smooth="yes"/>
    </contour>
    <contour>
      <point x="769" y="387" type="qcurve" smooth="yes"/>
      <point x="1027" y="387" type="line" smooth="yes"/>
      <point x="1130" y="387"/>
      <point x="1286" y="470"/>
      <point x="1386" y="630"/>
      <point x="1405" y="745" type="qcurve" smooth="yes"/>
      <point x="1424" y="860"/>
      <point x="1376" y="1020"/>
      <point x="1248" y="1103"/>
      <point x="1146" y="1103" type="qcurve" smooth="yes"/>
      <point x="888" y="1103" type="line" smooth="yes"/>
      <point x="786" y="1103"/>
      <point x="629" y="1020"/>
      <point x="528" y="860"/>
      <point x="509" y="745" type="qcurve" smooth="yes"/>
      <point x="490" y="630"/>
      <point x="538" y="470"/>
      <point x="667" y="387"/>
    </contour>
    <contour>
      <point x="629" y="-80" type="line"/>
      <point x="902" y="1570" type="line"/>
      <point x="1286" y="1570" type="line"/>
      <point x="1013" y="-80" type="line"/>
    </contour>
  </outline>
</glyph>
<glyph name="alpha" format="2">
  <advance width="1473"/>
  <unicode hex="03B1"/>
  <anchor x="531" y="0" name="m.uni0326"/>
  <anchor x="818" y="1118" name="m.uni030F_1"/>
  <outline>
    <contour>
      <point x="517" y="-24" type="qcurve" smooth="yes"/>
      <point x="348" y="-24"/>
      <point x="124" y="118"/>
      <point x="32" y="378"/>
      <point x="61" y="556" type="qcurve" smooth="yes"/>
      <point x="91" y="734"/>
      <point x="268" y="992"/>
      <point x="539" y="1132"/>
      <point x="708" y="1132" type="qcurve" smooth="yes"/>
      <point x="833" y="1132"/>
      <point x="973" y="1062"/>
      <point x="1036" y="951"/>
      <point x="1051" y="825"/>
      <point x="1051" y="770" type="qcurve"/>
      <point x="1176" y="770" type="line"/>
      <point x="1276" y="562" type="line"/>
      <point x="1329" y="0" type="line"/>
      <point x="951" y="0" type="line"/>
      <point x="938" y="562" type="line"/>
      <point x="937" y="631"/>
      <point x="908" y="730"/>
      <point x="855" y="793"/>
      <point x="780" y="824"/>
      <point x="732" y="824" type="qcurve" smooth="yes"/>
      <point x="662" y="824"/>
      <point x="554" y="762"/>
      <point x="484" y="645"/>
      <point x="470" y="560" type="qcurve" smooth="yes"/>
      <point x="456" y="475"/>
      <point x="485" y="356"/>
      <point x="570" y="294"/>
      <point x="637" y="294" type="qcurve" smooth="yes"/>
      <point x="688" y="294"/>
      <point x="778" y="329"/>
      <point x="855" y="395"/>
      <point x="916" y="493"/>
      <point x="937" y="556" type="qcurve" smooth="yes"/>
      <point x="1128" y="1118" type="line"/>
      <point x="1500" y="1118" type="line"/>
      <point x="1275" y="556" type="line"/>
      <point x="1109" y="364" type="line"/>
      <point x="976" y="364" type="line"/>
      <point x="958" y="309"/>
      <point x="907" y="176"/>
      <point x="813" y="54"/>
      <point x="649" y="-24"/>
    </contour>
  </outline>
</glyph>
<glyph name="delta" format="2">
  <advance width="1274"/>
  <unicode hex="03B4"/>
  <outline>
    <contour>
      <point x="540" y="-24" type="qcurve" smooth="yes"/>
      <point x="369" y="-24"/>
      <point x="130" y="103"/>
      <point x="25" y="343"/>
      <point x="53" y="512" type="qcurve" smooth="yes"/>
      <point x="81" y="681"/>
      <point x="259" y="879"/>
      <point x="533" y="965"/>
      <point x="704" y="965" type="qcurve"/>
      <point x="702" y="957" type="line"/>
      <point x="614" y="973"/>
      <point x="450" y="1005"/>
      <point x="326" y="1054"/>
      <point x="262" y="1136"/>
      <point x="273" y="1201" type="qcurve" smooth="yes"/>
      <point x="287" y="1284"/>
      <point x="450" y="1414"/>
      <point x="768" y="1490"/>
      <point x="1014" y="1490" type="qcurve" smooth="yes"/>
      <point x="1116" y="1490" type="line"/>
      <point x="1065" y="1186" type="line"/>
      <point x="936" y="1186" type="line" smooth="yes"/>
      <point x="818" y="1186"/>
      <point x="698" y="1170"/>
      <point x="655" y="1142"/>
      <point x="652" y="1123" type="qcurve" smooth="yes"/>
      <point x="649" y="1103"/>
      <point x="672" y="1070"/>
      <point x="731" y="1043"/>
      <point x="833" y="1019"/>
      <point x="908" y="1007" type="qcurve" smooth="yes"/>
      <point x="964" y="998"/>
      <point x="1085" y="935"/>
      <point x="1182" y="818"/>
      <point x="1226" y="638"/>
      <point x="1205" y="512" type="qcurve" smooth="yes"/>
      <point x="1177" y="343"/>
      <point x="993" y="103"/>
      <point x="712" y="-24"/>
    </contour>
    <contour>
      <point x="592" y="288" type="qcurve" smooth="yes"/>
      <point x="640" y="288"/>
      <point x="725" y="334"/>
      <point x="788" y="433"/>
      <point x="801" y="512" type="qcurve" smooth="yes"/>
      <point x="821" y="631"/>
      <point x="737" y="736"/>
      <point x="666" y="736" type="qcurve" smooth="yes"/>
      <point x="619" y="736"/>
      <point x="533" y="690"/>
      <point x="470" y="592"/>
      <point x="457" y="512" type="qcurve" smooth="yes"/>
      <point x="437" y="393"/>
      <point x="521" y="288"/>
    </contour>
  </outline>
</glyph>
<glyph name="lambda" format="2">
  <advance width="1469"/>
  <unicode hex="03BB"/>
  <outline>
    <contour>
      <point x="-81" y="0" type="line"/>
      <point x="518" y="1119" type="line"/>
      <point x="521" y="1137" type="line" smooth="yes"/>
      <point x="528" y="1175"/>
      <point x="497" y="1211"/>
      <point x="417" y="1214"/>
      <point x="348" y="1199" type="qcurve" smooth="yes"/>
      <point x="306" y="1190" type="line"/>
      <point x="265" y="1476" type="line"/>
      <point x="315" y="1494"/>
      <point x="465" y="1515"/>
      <point x="535" y="1515" type="qcurve" smooth="yes"/>
      <point x="650" y="1515"/>
      <point x="815" y="1450"/>
      <point x="919" y="1307"/>
      <point x="944" y="1190" type="qcurve" smooth="yes"/>
      <point x="1120" y="364" type="line" smooth="yes"/>
      <point x="1129" y="323"/>
      <point x="1172" y="280"/>
      <point x="1237" y="270"/>
      <point x="1278" y="278" type="qcurve" smooth="yes"/>
      <point x="1332" y="289" type="line"/>
      <point x="1374" y="14" type="line"/>
      <point x="1324" y="-4"/>
      <point x="1178" y="-28"/>
      <point x="1109" y="-28" type="qcurve" smooth="yes"/>
      <point x="1005" y="-28"/>
      <point x="851" y="38"/>
      <point x="755" y="182"/>
      <point x="737" y="300" type="qcurve" smooth="yes"/>
      <point x="705" y="510" type="line"/>
      <point x="689" y="624"/>
      <point x="673" y="858"/>
      <point x="671" y="998" type="qcurve"/>
      <point x="744" y="998" type="line"/>
      <point x="695" y="858"/>
      <point x="622" y="625"/>
      <point x="570" y="510" type="qcurve" smooth="yes"/>
      <point x="341" y="0" type="line"/>
    </contour>
  </outline>
</glyph>
<glyph name="chi" format="2">
  <advance width="1290"/>
  <unicode hex="03C7"/>
  <outline>
    <contour>
      <point x="-142" y="-418" type="line"/>
      <point x="580" y="588" type="line"/>
      <point x="716" y="588" type="line"/>
      <point x="954" y="-40" type="line" smooth="yes"/>
      <point x="970" y="-81"/>
      <point x="993" y="-118"/>
      <point x="1028" y="-128"/>
      <point x="1062" y="-128" type="qcurve" smooth="yes"/>
      <point x="1146" y="-128" type="line"/>
      <point x="1098" y="-418" type="line"/>
      <point x="1014" y="-418" type="line" smooth="yes"/>
      <point x="895" y="-418"/>
      <point x="745" y="-376"/>
      <point x="651" y="-271"/>
      <point x="614" y="-178" type="qcurve" smooth="yes"/>
      <point x="547" y="-12" type="line"/>
      <point x="256" y="-418" type="line"/>
    </contour>
    <contour>
      <point x="507" y="108" type="line"/>
      <point x="261" y="738" type="line" smooth="yes"/>
      <point x="245" y="780"/>
      <point x="223" y="817"/>
      <point x="189" y="826"/>
      <point x="154" y="826" type="qcurve" smooth="yes"/>
      <point x="70" y="826" type="line"/>
      <point x="118" y="1118" type="line"/>
      <point x="202" y="1118" type="line" smooth="yes"/>
      <point x="321" y="1118"/>
      <point x="473" y="1075"/>
      <point x="570" y="971"/>
      <point x="604" y="878" type="qcurve" smooth="yes"/>
      <point x="668" y="708" type="line"/>
      <point x="962" y="1118" type="line"/>
      <point x="1358" y="1118" type="line"/>
      <point x="637" y="108" type="line"/>
    </contour>
  </outline>
</glyph>
<glyph name="psi" format="2">
  <advance width="1792"/>
  <unicode hex="03C8"/>
  <outline>
    <contour>
      <point x="605" y="-20" type="line" smooth="yes"/>
      <point x="410" y="-20"/>
      <point x="164" y="102"/>
      <point x="67" y="345"/>
      <point x="97" y="528" type="qcurve" smooth="yes"/>
      <point x="195" y="1118" type="line"/>
      <point x="587" y="1118" type="line"/>
      <point x="489" y="528" type="line" smooth="yes"/>
      <point x="474" y="436"/>
      <point x="496" y="333"/>
      <point x="579" y="292"/>
      <point x="656" y="292" type="qcurve" smooth="yes"/>
      <point x="1048" y="292" type="line" smooth="yes"/>
      <point x="1126" y="292"/>
      <point x="1223" y="333"/>
      <point x="1278" y="436"/>
      <point x="1293" y="528" type="qcurve" smooth="yes"/>
      <point x="1391" y="1118" type="line"/>
      <point x="1783" y="1118" type="line"/>
      <point x="1685" y="528" type="line" smooth="yes"/>
      <point x="1655" y="345"/>
      <point x="1479" y="102"/>
      <point x="1192" y="-20"/>
      <point x="997" y="-20" type="qcurve" smooth="yes"/>
    </contour>
    <contour>
      <point x="539" y="-418" type="line"/>
      <point x="837" y="1384" type="line"/>
      <point x="1229" y="1384" type="line"/>
      <point x="931" y="-418" type="line"/>
    </contour>
  </outline>
</glyph>
<glyph name="epsilonlunatesymbol" format="2">
  <advance width="1030"/>
  <unicode hex="03F5"/>
  <outline>
    <contour>
      <point x="590" y="274" type="qcurve" smooth="yes"/>
      <point x="898" y="274" type="line"/>
      <point x="848" y="-26" type="line"/>
      <point x="540" y="-26" type="line" smooth="yes"/>
      <point x="364" y="-26"/>
      <point x="147" y="118"/>
      <point x="65" y="371"/>
      <point x="92" y="532" type="qcurve"/>
      <point x="94" y="556" type="line"/>
      <point x="121" y="716"/>
      <point x="287" y="970"/>
      <point x="553" y="1118"/>
      <point x="728" y="1118" type="qcurve" smooth="yes"/>
      <point x="1038" y="1118" type="line"/>
      <point x="988" y="818" type="line"/>
      <point x="680" y="818" type="line" smooth="yes"/>
      <point x="617" y="818"/>
      <point x="536" y="757"/>
      <point x="487" y="640"/>
      <point x="472" y="556" type="qcurve"/>
      <point x="470" y="532" type="line"/>
      <point x="461" y="479"/>
      <point x="460" y="358"/>
      <point x="516" y="274"/>
    </contour>
    <contour>
      <point x="856" y="670" type="line"/>
      <point x="814" y="420" type="line"/>
      <point x="366" y="420" type="line"/>
      <point x="408" y="670" type="line"/>
    </contour>
  </outline>
</glyph>
<glyph name="epsilonreversedlunatesymbol" format="2">
  <advance width="1030"/>
  <unicode hex="03F6"/>
  <outline>
    <contour>
      <point x="46" y="274" type="line"/>
      <point x="354" y="274" type="line" smooth="yes"/>
      <point x="414" y="274"/>
      <point x="496" y="334"/>
      <point x="550" y="450"/>
      <point x="564" y="532" type="qcurve"/>
      <point x="568" y="550" type="line"/>
      <point x="576" y="605"/>
      <point x="574" y="727"/>
      <point x="517" y="812"/>
      <point x="440" y="812" type="qcurve" smooth="yes"/>
      <point x="134" y="812" type="line"/>
      <point x="184" y="1112" type="line"/>
      <point x="488" y="1112" type="line" smooth="yes"/>
      <point x="666" y="1112"/>
      <point x="885" y="964"/>
      <point x="968" y="710"/>
      <point x="942" y="550" type="qcurve"/>
      <point x="940" y="532" type="line"/>
      <point x="912" y="371"/>
      <point x="746" y="117"/>
      <point x="482" y="-29"/>
      <point x="306" y="-30" type="qcurve"/>
      <point x="-2" y="-30" type="line"/>
    </contour>
    <contour>
      <point x="180" y="418" type="line"/>
      <point x="222" y="670" type="line"/>
      <point x="664" y="670" type="line"/>
      <point x="622" y="418" type="line"/>
    </contour>
  </outline>
</glyph>
<glyph name="Ereversedcyr" format="2">
  <advance width="1531"/>
  <unicode hex="042D"/>
  <anchor x="695" y="0" name="m.uni0326"/>
  <anchor x="942" y="1540" name="m.uni030F_1"/>
  <outline>
    <contour>
      <point x="648" y="-20" type="qcurve" smooth="yes"/>
      <point x="484" y="-20"/>
      <point x="254" y="83"/>
      <point x="113" y="251"/>
      <point x="55" y="449"/>
      <point x="63" y="544" type="qcurve"/>
      <point x="473" y="544" type="line"/>
      <point x="472" y="487"/>
      <point x="498" y="406"/>
      <point x="554" y="353"/>
      <point x="642" y="328"/>
      <point x="703" y="328" type="qcurve" smooth="yes"/>
      <point x="802" y="328"/>
      <point x="952" y="416"/>
      <point x="1052" y="600"/>
      <point x="1076" y="744" type="qcurve" smooth="yes"/>
      <point x="1099" y="882"/>
      <point x="1069" y="1068"/>
      <point x="957" y="1162"/>
      <point x="855" y="1162" type="qcurve" smooth="yes"/>
      <point x="793" y="1162"/>
      <point x="693" y="1137"/>
      <point x="615" y="1084"/>
      <point x="560" y="1003"/>
      <point x="542" y="946" type="qcurve"/>
      <point x="132" y="946" type="line"/>
      <point x="168" y="1081"/>
      <point x="312" y="1291"/>
      <point x="514" y="1435"/>
      <point x="762" y="1510"/>
      <point x="901" y="1510" type="qcurve" smooth="yes"/>
      <point x="1102" y="1510"/>
      <point x="1398" y="1335"/>
      <point x="1534" y="993"/>
      <point x="1492" y="744" type="qcurve" smooth="yes"/>
      <point x="1451" y="497"/>
      <point x="1206" y="156"/>
      <point x="853" y="-20"/>
    </contour>
    <contour>
      <point x="589" y="594" type="line"/>
      <point x="642" y="912" type="line"/>
      <point x="1155" y="912" type="line"/>
      <point x="1102" y="594" type="line"/>
    </contour>
  </outline>
</glyph>
<glyph name="efcyr" format="2">
  <advance width="1780"/>
  <unicode hex="0444"/>
  <outline>
    <contour>
      <point x="533" y="-378" type="line"/>
      <point x="843" y="1490" type="line"/>
      <point x="1245" y="1490" type="line"/>
      <point x="935" y="-378" type="line"/>
    </contour>
    <contour>
      <point x="594" y="-20" type="line" smooth="yes"/>
      <point x="410" y="-20"/>
      <point x="150" y="127"/>
      <point x="33" y="387"/>
      <point x="61" y="556" type="qcurve" smooth="yes"/>
      <point x="89" y="725"/>
      <point x="292" y="984"/>
      <point x="600" y="1132"/>
      <point x="784" y="1132" type="qcurve" smooth="yes"/>
      <point x="844" y="1132" type="line"/>
      <point x="654" y="-20" type="line"/>
    </contour>
    <contour>
      <point x="643" y="280" type="qcurve" smooth="yes"/>
      <point x="681" y="280" type="line"/>
      <point x="773" y="832" type="line"/>
      <point x="735" y="832" type="line" smooth="yes"/>
      <point x="673" y="832"/>
      <point x="565" y="762"/>
      <point x="491" y="637"/>
      <point x="477" y="556" type="qcurve" smooth="yes"/>
      <point x="464" y="475"/>
      <point x="498" y="350"/>
      <point x="582" y="280"/>
    </contour>
    <contour>
      <point x="994" y="-20" type="qcurve" smooth="yes"/>
      <point x="934" y="-20" type="line"/>
      <point x="1124" y="1132" type="line"/>
      <point x="1184" y="1132" type="line" smooth="yes"/>
      <point x="1369" y="1132"/>
      <point x="1629" y="984"/>
      <point x="1747" y="725"/>
      <point x="1719" y="556" type="qcurve" smooth="yes"/>
      <point x="1691" y="387"/>
      <point x="1487" y="127"/>
      <point x="1179" y="-20"/>
    </contour>
    <contour>
      <point x="1043" y="280" type="line" smooth="yes"/>
      <point x="1106" y="280"/>
      <point x="1214" y="350"/>
      <point x="1290" y="475"/>
      <point x="1303" y="556" type="qcurve" smooth="yes"/>
      <point x="1317" y="637"/>
      <point x="1282" y="762"/>
      <point x="1198" y="832"/>
      <point x="1135" y="832" type="qcurve" smooth="yes"/>
      <point x="1099" y="832" type="line"/>
      <point x="1007" y="280" type="line"/>
    </contour>
  </outline>
</glyph>
<glyph name="softcyr" format="2">
  <advance width="1262"/>
  <unicode hex="044C"/>
  <outline>
    <contour>
      <point x="377" y="814" type="line"/>
      <point x="721" y="814" type="line" smooth="yes"/>
      <point x="882" y="814"/>
      <point x="1099" y="713"/>
      <point x="1196" y="529"/>
      <point x="1175" y="402" type="qcurve" smooth="yes"/>
      <point x="1155" y="279"/>
      <point x="997" y="98"/>
      <point x="747" y="0"/>
      <point x="586" y="0" type="qcurve" smooth="yes"/>
      <point x="10" y="0" type="line"/>
      <point x="195" y="1118" type="line"/>
      <point x="597" y="1118" type="line"/>
      <point x="462" y="300" type="line"/>
      <point x="636" y="300" type="line" smooth="yes"/>
      <point x="701" y="300"/>
      <point x="779" y="354"/>
      <point x="787" y="404" type="qcurve" smooth="yes"/>
      <point x="796" y="457"/>
      <point x="736" y="514"/>
      <point x="671" y="514" type="qcurve" smooth="yes"/>
      <point x="327" y="514" type="line"/>
    </contour>
  </outline>
</glyph>
<glyph name="ereversedcyr" format="2">
  <advance width="1235"/>
  <unicode hex="044D"/>
  <anchor x="735" y="1180" name="m.uni030F_1"/>
  <outline>
    <contour>
      <point x="501" y="-20" type="qcurve" smooth="yes"/>
      <point x="336" y="-20"/>
      <point x="115" y="99"/>
      <point x="21" y="318"/>
      <point x="43" y="466" type="qcurve"/>
      <point x="415" y="466" type="line"/>
      <point x="408" y="378"/>
      <point x="478" y="280"/>
      <point x="544" y="280" type="qcurve" smooth="yes"/>
      <point x="597" y="280"/>
      <point x="686" y="343"/>
      <point x="749" y="467"/>
      <point x="764" y="558" type="qcurve" smooth="yes"/>
      <point x="780" y="650"/>
      <point x="757" y="772"/>
      <point x="689" y="832"/>
      <point x="636" y="832" type="qcurve" smooth="yes"/>
      <point x="592" y="832"/>
      <point x="516" y="791"/>
      <point x="461" y="711"/>
      <point x="446" y="652" type="qcurve"/>
      <point x="74" y="652" type="line"/>
      <point x="99" y="798"/>
      <point x="266" y="1013"/>
      <point x="527" y="1132"/>
      <point x="691" y="1132" type="qcurve" smooth="yes"/>
      <point x="873" y="1132"/>
      <point x="1108" y="987"/>
      <point x="1203" y="728"/>
      <point x="1174" y="556" type="qcurve" smooth="yes"/>
      <point x="1146" y="384"/>
      <point x="965" y="125"/>
      <point x="683" y="-20"/>
    </contour>
    <contour>
      <point x="500" y="461" type="line"/>
      <point x="533" y="657" type="line"/>
      <point x="813" y="657" type="line"/>
      <point x="780" y="461" type="line"/>
    </contour>
  </outline>
</glyph>
<glyph name="yatcyr" format="2">
  <advance width="1368"/>
  <unicode hex="0463"/>
  <outline>
    <contour>
      <point x="76" y="896" type="line"/>
      <point x="113" y="1118" type="line"/>
      <point x="1097" y="1118" type="line"/>
      <point x="1060" y="896" type="line"/>
    </contour>
    <contour>
      <point x="300" y="1118" type="line"/>
      <point x="362" y="1490" type="line"/>
      <point x="764" y="1490" type="line"/>
      <point x="702" y="1118" type="line"/>
    </contour>
    <contour>
      <point x="483" y="814" type="line"/>
      <point x="827" y="814" type="line" smooth="yes"/>
      <point x="988" y="814"/>
      <point x="1205" y="713"/>
      <point x="1302" y="529"/>
      <point x="1281" y="402" type="qcurve" smooth="yes"/>
      <point x="1261" y="279"/>
      <point x="1103" y="98"/>
      <point x="853" y="0"/>
      <point x="692" y="0" type="qcurve" smooth="yes"/>
      <point x="116" y="0" type="line"/>
      <point x="301" y="1118" type="line"/>
      <point x="703" y="1118" type="line"/>
      <point x="568" y="300" type="line"/>
      <point x="742" y="300" type="line" smooth="yes"/>
      <point x="807" y="300"/>
      <point x="885" y="354"/>
      <point x="893" y="404" type="qcurve" smooth="yes"/>
      <point x="902" y="457"/>
      <point x="842" y="514"/>
      <point x="777" y="514" type="qcurve" smooth="yes"/>
      <point x="433" y="514" type="line"/>
    </contour>
  </outline>
</glyph>
<glyph name="Cheabkhcyr" format="2">
  <advance width="1912"/>
  <unicode hex="04BC"/>
  <outline>
    <contour>
      <point x="1069" y="-20" type="qcurve" smooth="yes"/>
      <point x="868" y="-20"/>
      <point x="567" y="159"/>
      <point x="428" y="503"/>
      <point x="468" y="748" type="qcurve" smooth="yes"/>
      <point x="497" y="925"/>
      <point x="649" y="1206"/>
      <point x="875" y="1405"/>
      <point x="1161" y="1510"/>
      <point x="1324" y="1510" type="qcurve" smooth="yes"/>
      <point x="1519" y="1510"/>
      <point x="1791" y="1329"/>
      <point x="1912" y="1011"/>
      <point x="1878" y="807" type="qcurve" smooth="yes"/>
      <point x="1843" y="601" type="line"/>
      <point x="726" y="601" type="line"/>
      <point x="773" y="889" type="line"/>
      <point x="1571" y="889" type="line"/>
      <point x="1500" y="881" type="line"/>
      <point x="1511" y="949"/>
      <point x="1471" y="1076"/>
      <point x="1362" y="1158"/>
      <point x="1270" y="1158" type="qcurve" smooth="yes"/>
      <point x="1165" y="1158"/>
      <point x="1007" y="1059"/>
      <point x="905" y="873"/>
      <point x="883" y="742" type="qcurve" smooth="yes"/>
      <point x="862" y="613"/>
      <point x="907" y="429"/>
      <point x="1034" y="332"/>
      <point x="1135" y="332" type="qcurve" smooth="yes"/>
      <point x="1183" y="332"/>
      <point x="1265" y="353"/>
      <point x="1333" y="394"/>
      <point x="1384" y="454"/>
      <point x="1399" y="492" type="qcurve"/>
      <point x="1807" y="492" type="line"/>
      <point x="1777" y="380"/>
      <point x="1639" y="193"/>
      <point x="1441" y="55"/>
      <point x="1201" y="-20"/>
    </contour>
    <contour>
      <point x="102" y="1057" type="line"/>
      <point x="436" y="1057" type="line"/>
      <point x="432" y="1030" type="line" smooth="yes"/>
      <point x="420" y="960"/>
      <point x="419" y="902"/>
      <point x="463" y="890"/>
      <point x="518" y="890" type="qcurve" smooth="yes"/>
      <point x="573" y="890" type="line"/>
      <point x="525" y="600" type="line"/>
      <point x="430" y="600" type="line" smooth="yes"/>
      <point x="219" y="600"/>
      <point x="57" y="787"/>
      <point x="91" y="990" type="qcurve" smooth="yes"/>
    </contour>
  </outline>
</glyph>
<glyph name="gmod" format="2">
  <advance width="888"/>
  <unicode hex="1D4D"/>
  <outline>
    <contour>
      <point x="414" y="456" type="qcurve"/>
      <point x="248" y="457"/>
      <point x="88" y="582"/>
      <point x="82" y="670" type="qcurve"/>
      <point x="332" y="712" type="line"/>
      <point x="338" y="697"/>
      <point x="378" y="646"/>
      <point x="448" y="646" type="qcurve" smooth="yes"/>
      <point x="501" y="646"/>
      <point x="585" y="690"/>
      <point x="594" y="742" type="qcurve"/>
      <point x="610" y="852" type="line"/>
      <point x="600" y="852" type="line"/>
      <point x="587" y="839"/>
      <point x="538" y="795"/>
      <point x="454" y="760"/>
      <point x="386" y="760" type="qcurve"/>
      <point x="256" y="759"/>
      <point x="106" y="935"/>
      <point x="136" y="1120" type="qcurve" smooth="yes"/>
      <point x="158" y="1251"/>
      <point x="273" y="1418"/>
      <point x="428" y="1498"/>
      <point x="510" y="1498" type="qcurve" smooth="yes"/>
      <point x="578" y="1498"/>
      <point x="650" y="1456"/>
      <point x="683" y="1406"/>
      <point x="690" y="1394" type="qcurve"/>
      <point x="702" y="1394" type="line"/>
      <point x="716" y="1490" type="line"/>
      <point x="978" y="1490" type="line"/>
      <point x="852" y="736" type="line" smooth="yes"/>
      <point x="836" y="643"/>
      <point x="711" y="519"/>
      <point x="524" y="457"/>
    </contour>
    <contour>
      <point x="506" y="960" type="qcurve" smooth="yes"/>
      <point x="570" y="960"/>
      <point x="645" y="1046"/>
      <point x="658" y="1128" type="qcurve" smooth="yes"/>
      <point x="669" y="1194"/>
      <point x="621" y="1289"/>
      <point x="556" y="1288" type="qcurve"/>
      <point x="510" y="1289"/>
      <point x="449" y="1244"/>
      <point x="415" y="1171"/>
      <point x="408" y="1128" type="qcurve" smooth="yes"/>
      <point x="395" y="1048"/>
      <point x="439" y="960"/>
    </contour>
  </outline>
</glyph>
<glyph name="tmod" format="2">
  <advance width="552"/>
  <unicode hex="1D57"/>
  <outline>
    <contour>
      <point x="672" y="1490" type="line"/>
      <point x="640" y="1292" type="line"/>
      <point x="136" y="1292" type="line"/>
      <point x="168" y="1490" type="line"/>
    </contour>
    <contour>
      <point x="300" y="1666" type="line"/>
      <point x="564" y="1666" type="line"/>
      <point x="454" y="1004" type="line" smooth="yes"/>
      <point x="447" y="964"/>
      <point x="472" y="951"/>
      <point x="492" y="952" type="qcurve"/>
      <point x="507" y="951"/>
      <point x="537" y="957"/>
      <point x="544" y="958" type="qcurve"/>
      <point x="552" y="760" type="line"/>
      <point x="531" y="753"/>
      <point x="465" y="741"/>
      <point x="418" y="738" type="qcurve"/>
      <point x="301" y="734"/>
      <point x="162" y="836"/>
      <point x="184" y="962" type="qcurve"/>
    </contour>
  </outline>
</glyph>
<glyph name="umod" format="2">
  <advance width="868"/>
  <unicode hex="1D58"/>
  <outline>
    <contour>
      <point x="630" y="1090" type="qcurve"/>
      <point x="694" y="1490" type="line"/>
      <point x="960" y="1490" type="line"/>
      <point x="834" y="744" type="line"/>
      <point x="580" y="744" type="line"/>
      <point x="604" y="884" type="line"/>
      <point x="596" y="884" type="line"/>
      <point x="561" y="819"/>
      <point x="432" y="736"/>
      <point x="342" y="736" type="qcurve" smooth="yes"/>
      <point x="236" y="736"/>
      <point x="121" y="885"/>
      <point x="144" y="1026" type="qcurve"/>
      <point x="224" y="1490" type="line"/>
      <point x="484" y="1490" type="line"/>
      <point x="418" y="1074" type="line" smooth="yes"/>
      <point x="409" y="1019"/>
      <point x="450" y="960"/>
      <point x="494" y="960" type="qcurve" smooth="yes"/>
      <point x="529" y="960"/>
      <point x="620" y="1019"/>
    </contour>
  </outline>
</glyph>
<glyph name="rbelowcomb" format="2">
  <unicode hex="1DCA"/>
  <outline>
    <contour>
      <point x="-750" y="-264" type="line"/>
      <point x="-798" y="-550" type="line"/>
      <point x="-980" y="-550" type="line"/>
      <point x="-910" y="-128" type="line"/>
      <point x="-744" y="-128" type="line"/>
    </contour>
    <contour>
      <point x="-574" y="-128" type="qcurve"/>
      <point x="-602" y="-312" type="line"/>
      <point x="-613" y="-309"/>
      <point x="-642" y="-303"/>
      <point x="-666" y="-302" type="qcurve"/>
      <point x="-716" y="-303"/>
      <point x="-788" y="-340"/>
      <point x="-798" y="-390" type="qcurve"/>
      <point x="-850" y="-390" type="line"/>
      <point x="-830" y="-274"/>
      <point x="-696" y="-122"/>
      <point x="-622" y="-122" type="qcurve" smooth="yes"/>
      <point x="-609" y="-122"/>
      <point x="-584" y="-123"/>
    </contour>
  </outline>
</glyph>
<glyph name="longscomb" format="2">
  <unicode hex="1DE5"/>
  <outline>
    <contour>
      <point x="-474" y="1202" type="line"/>
      <point x="-658" y="1202" type="line"/>
      <point x="-558" y="1812" type="line" smooth="yes"/>
      <point x="-543" y="1904"/>
      <point x="-410" y="2007"/>
      <point x="-306" y="2008" type="qcurve"/>
      <point x="-280" y="2007"/>
      <point x="-234" y="2000"/>
      <point x="-218" y="1998" type="qcurve"/>
      <point x="-238" y="1858" type="line"/>
      <point x="-247" y="1863"/>
      <point x="-270" y="1865"/>
      <point x="-286" y="1864" type="qcurve"/>
      <point x="-324" y="1865"/>
      <point x="-371" y="1836"/>
      <point x="-376" y="1812" type="qcurve"/>
    </contour>
  </outline>
</glyph>
<glyph name="almostequaltobelowcomb" format="2">
  <unicode hex="1DFD"/>
  <outline>
    <contour>
      <point x="-1005" y="-295" type="qcurve"/>
      <point x="-1209" y="-284" type="line"/>
      <point x="-1200" y="-228"/>
      <point x="-1121" y="-124"/>
      <point x="-1000" y="-56"/>
      <point x="-928" y="-56" type="qcurve" smooth="yes"/>
      <point x="-874" y="-56"/>
      <point x="-784" y="-89"/>
      <point x="-696" y="-122"/>
      <point x="-645" y="-122" type="qcurve" smooth="yes"/>
      <point x="-614" y="-122"/>
      <point x="-561" y="-91"/>
      <point x="-555" y="-53" type="qcurve"/>
      <point x="-349" y="-64" type="line"/>
      <point x="-359" y="-122"/>
      <point x="-440" y="-226"/>
      <point x="-562" y="-291"/>
      <point x="-635" y="-291" type="qcurve" smooth="yes"/>
      <point x="-683" y="-291"/>
      <point x="-754" y="-271"/>
      <point x="-814" y="-246"/>
      <point x="-877" y="-226"/>
      <point x="-918" y="-226" type="qcurve" smooth="yes"/>
      <point x="-949" y="-226"/>
      <point x="-998" y="-257"/>
    </contour>
    <contour>
      <point x="-1048" y="-551" type="qcurve"/>
      <point x="-1252" y="-542" type="line"/>
      <point x="-1243" y="-488"/>
      <point x="-1164" y="-384"/>
      <point x="-1043" y="-315"/>
      <point x="-971" y="-315" type="qcurve" smooth="yes"/>
      <point x="-917" y="-315"/>
      <point x="-827" y="-348"/>
      <point x="-739" y="-382"/>
      <point x="-688" y="-382" type="qcurve" smooth="yes"/>
      <point x="-657" y="-382"/>
      <point x="-603" y="-351"/>
      <point x="-599" y="-315" type="qcurve"/>
      <point x="-392" y="-324" type="line"/>
      <point x="-402" y="-381"/>
      <point x="-483" y="-485"/>
      <point x="-605" y="-551"/>
      <point x="-678" y="-551" type="qcurve" smooth="yes"/>
      <point x="-726" y="-551"/>
      <point x="-797" y="-531"/>
      <point x="-857" y="-504"/>
      <point x="-920" y="-484"/>
      <point x="-961" y="-484" type="qcurve" smooth="yes"/>
      <point x="-992" y="-484"/>
      <point x="-1041" y="-515"/>
    </contour>
  </outline>
</glyph>
<glyph name="iotaadscript" format="2">
  <advance width="648"/>
  <unicode hex="1FBE"/>
  <outline>
    <contour>
      <point x="198" y="-494" type="qcurve"/>
      <point x="116" y="-495"/>
      <point x="9" y="-406"/>
      <point x="26" y="-306" type="qcurve" smooth="yes"/>
      <point x="60" y="-102" type="line"/>
      <point x="266" y="-102" type="line"/>
      <point x="232" y="-306" type="line" smooth="yes"/>
      <point x="228" y="-328"/>
      <point x="246" y="-352"/>
      <point x="282" y="-352" type="qcurve" smooth="yes"/>
      <point x="301" y="-352"/>
      <point x="322" y="-349"/>
      <point x="330" y="-350" type="qcurve"/>
      <point x="308" y="-480" type="line"/>
      <point x="281" y="-487"/>
      <point x="230" y="-495"/>
    </contour>
  </outline>
</glyph>
<glyph name="lenisgrave" format="2">
  <advance width="1062"/>
  <unicode hex="1FCD"/>
  <outline>
    <contour>
      <point x="244" y="1239" type="qcurve" smooth="yes"/>
      <point x="231" y="1239" type="line"/>
      <point x="246" y="1329" type="line"/>
      <point x="259" y="1329" type="line" smooth="yes"/>
      <point x="315" y="1329"/>
      <point x="374" y="1358"/>
      <point x="378" y="1386" type="qcurve"/>
      <point x="383" y="1413"/>
      <point x="339" y="1440"/>
      <point x="291" y="1440" type="qcurve" smooth="yes"/>
      <point x="226" y="1440" type="line"/>
      <point x="253" y="1602" type="line"/>
      <point x="304" y="1602" type="line" smooth="yes"/>
      <point x="443" y="1602"/>
      <point x="575" y="1504"/>
      <point x="561" y="1417" type="qcurve" smooth="yes"/>
      <point x="546" y="1329"/>
      <point x="381" y="1239"/>
    </contour>
    <contour>
      <point x="921" y="1256" type="line"/>
      <point x="728" y="1256" type="line"/>
      <point x="650" y="1595" type="line"/>
      <point x="941" y="1595" type="line"/>
    </contour>
  </outline>
</glyph>
<glyph name="aspergrave" format="2">
  <advance width="1102"/>
  <unicode hex="1FDD"/>
  <outline>
    <contour>
      <point x="479" y="1239" type="line" smooth="yes"/>
      <point x="342" y="1239"/>
      <point x="207" y="1329"/>
      <point x="222" y="1417" type="qcurve" smooth="yes"/>
      <point x="236" y="1504"/>
      <point x="400" y="1602"/>
      <point x="539" y="1602" type="qcurve" smooth="yes"/>
      <point x="590" y="1602" type="line"/>
      <point x="563" y="1440" type="line"/>
      <point x="498" y="1440" type="line" smooth="yes"/>
      <point x="450" y="1440"/>
      <point x="398" y="1413"/>
      <point x="393" y="1386" type="qcurve"/>
      <point x="389" y="1358"/>
      <point x="439" y="1329"/>
      <point x="494" y="1329" type="qcurve" smooth="yes"/>
      <point x="507" y="1329" type="line"/>
      <point x="492" y="1239" type="line"/>
    </contour>
    <contour>
      <point x="961" y="1256" type="line"/>
      <point x="768" y="1256" type="line"/>
      <point x="690" y="1595" type="line"/>
      <point x="981" y="1595" type="line"/>
    </contour>
  </outline>
</glyph>
<glyph name="bullet" format="2">
  <advance width="816"/>
  <unicode hex="2022"/>
  <outline>
    <contour>
      <point x="358" y="274" type="qcurve" smooth="yes"/>
      <point x="271" y="274"/>
      <point x="141" y="359"/>
      <point x="79" y="505"/>
      <point x="94" y="594" type="qcurve" smooth="yes"/>
      <point x="108" y="683"/>
      <point x="217" y="827"/>
      <point x="377" y="914"/>
      <point x="466" y="914" type="qcurve" smooth="yes"/>
      <point x="555" y="914"/>
      <point x="685" y="827"/>
      <point x="748" y="683"/>
      <point x="734" y="594" type="qcurve" smooth="yes"/>
      <point x="719" y="505"/>
      <point x="607" y="359"/>
      <point x="447" y="274"/>
    </contour>
  </outline>
</glyph>
<glyph name="undertie" format="2">
  <advance width="1798"/>
  <unicode hex="203F"/>
  <outline>
    <contour>
      <point x="724" y="-494" type="qcurve" smooth="yes"/>
      <point x="518" y="-494"/>
      <point x="200" y="-430"/>
      <point x="-26" y="-313"/>
      <point x="-94" y="-236" type="qcurve"/>
      <point x="56" y="-116" type="line"/>
      <point x="152" y="-164"/>
      <point x="513" y="-250"/>
      <point x="766" y="-250" type="qcurve" smooth="yes"/>
      <point x="936" y="-250"/>
      <point x="1231" y="-208"/>
      <point x="1463" y="-145"/>
      <point x="1538" y="-116" type="qcurve"/>
      <point x="1632" y="-236" type="line"/>
      <point x="1557" y="-308"/>
      <point x="1288" y="-426"/>
      <point x="931" y="-494"/>
    </contour>
  </outline>
</glyph>
<glyph name="pilcrowsignreversed" format="2">
  <advance width="1222"/>
  <unicode hex="204B"/>
  <outline>
    <contour>
      <point x="567" y="552" type="line"/>
      <point x="675" y="1198" type="line"/>
      <point x="275" y="1198" type="line"/>
      <point x="323" y="1490" type="line"/>
      <point x="809" y="1490" type="line" smooth="yes"/>
      <point x="977" y="1490"/>
      <point x="1186" y="1367"/>
      <point x="1269" y="1156"/>
      <point x="1247" y="1022" type="qcurve" smooth="yes"/>
      <point x="1225" y="887"/>
      <point x="1071" y="674"/>
      <point x="822" y="552"/>
      <point x="655" y="552" type="qcurve" smooth="yes"/>
    </contour>
    <contour>
      <point x="3" y="0" type="line"/>
      <point x="251" y="1490" type="line"/>
      <point x="543" y="1490" type="line"/>
      <point x="295" y="0" type="line"/>
    </contour>
  </outline>
</glyph>
<glyph name="eight.superior" format="2">
  <advance width="1038"/>
  <unicode hex="2078"/>
  <outline>
    <contour>
      <point x="570" y="876" type="qcurve" smooth="yes"/>
      <point x="452" y="876"/>
      <point x="271" y="942"/>
      <point x="176" y="1052"/>
      <point x="187" y="1117" type="qcurve" smooth="yes"/>
      <point x="195" y="1165"/>
      <point x="269" y="1250"/>
      <point x="375" y="1308"/>
      <point x="431" y="1315" type="qcurve"/>
      <point x="433" y="1326" type="line"/>
      <point x="364" y="1337"/>
      <point x="280" y="1443"/>
      <point x="291" y="1508" type="qcurve" smooth="yes"/>
      <point x="302" y="1573"/>
      <point x="421" y="1677"/>
      <point x="606" y="1738"/>
      <point x="713" y="1738" type="qcurve" smooth="yes"/>
      <point x="821" y="1738"/>
      <point x="985" y="1676"/>
      <point x="1072" y="1572"/>
      <point x="1061" y="1508" type="qcurve" smooth="yes"/>
      <point x="1050" y="1442"/>
      <point x="929" y="1337"/>
      <point x="859" y="1326" type="qcurve"/>
      <point x="857" y="1315" type="line"/>
      <point x="907" y="1308"/>
      <point x="994" y="1250"/>
      <point x="1043" y="1166"/>
      <point x="1035" y="1117" type="qcurve" smooth="yes"/>
      <point x="1024" y="1052"/>
      <point x="893" y="942"/>
      <point x="690" y="876"/>
    </contour>
    <contour>
      <point x="601" y="1065" type="qcurve" smooth="yes"/>
      <point x="654" y="1065"/>
      <point x="730" y="1110"/>
      <point x="735" y="1144" type="qcurve" smooth="yes"/>
      <point x="740" y="1176"/>
      <point x="679" y="1215"/>
      <point x="626" y="1215" type="qcurve" smooth="yes"/>
      <point x="575" y="1215"/>
      <point x="501" y="1176"/>
      <point x="495" y="1144" type="qcurve"/>
      <point x="490" y="1111"/>
      <point x="551" y="1065"/>
    </contour>
    <contour>
      <point x="657" y="1403" type="qcurve" smooth="yes"/>
      <point x="703" y="1403"/>
      <point x="772" y="1443"/>
      <point x="776" y="1470" type="qcurve"/>
      <point x="781" y="1498"/>
      <point x="725" y="1537"/>
      <point x="679" y="1537" type="qcurve" smooth="yes"/>
      <point x="636" y="1537"/>
      <point x="567" y="1499"/>
      <point x="562" y="1470" type="qcurve" smooth="yes"/>
      <point x="558" y="1444"/>
      <point x="613" y="1403"/>
    </contour>
  </outline>
</glyph>
<glyph name="drachma" format="2">
  <advance width="3048"/>
  <unicode hex="20AF"/>
  <outline>
    <contour>
      <point x="1058" y="-20" type="qcurve"/>
      <point x="1108" y="282" type="line"/>
      <point x="1228" y="282"/>
      <point x="1345" y="384"/>
      <point x="1398" y="576"/>
      <point x="1420" y="710" type="qcurve"/>
      <point x="1428" y="768" type="line"/>
      <point x="1448" y="888"/>
      <point x="1424" y="1089"/>
      <point x="1293" y="1210"/>
      <point x="1152" y="1210" type="qcurve" smooth="yes"/>
      <point x="1031" y="1210"/>
      <point x="797" y="1176"/>
      <point x="540" y="1124"/>
      <point x="382" y="1096" type="qcurve"/>
      <point x="430" y="1400" type="line"/>
      <point x="636" y="1441"/>
      <point x="1043" y="1510"/>
      <point x="1234" y="1510" type="qcurve" smooth="yes"/>
      <point x="1406" y="1510"/>
      <point x="1647" y="1393"/>
      <point x="1788" y="1187"/>
      <point x="1832" y="918"/>
      <point x="1806" y="766" type="qcurve"/>
      <point x="1798" y="710" type="line"/>
      <point x="1757" y="456"/>
      <point x="1562" y="133"/>
      <point x="1260" y="-20"/>
    </contour>
    <contour>
      <point x="1128" y="1676" type="line"/>
      <point x="920" y="410" type="line" smooth="yes"/>
      <point x="906" y="327"/>
      <point x="844" y="173"/>
      <point x="726" y="51"/>
      <point x="535" y="-20"/>
      <point x="392" y="-20" type="qcurve" smooth="yes"/>
      <point x="180" y="-20"/>
      <point x="8" y="140"/>
      <point x="30" y="270" type="qcurve"/>
      <point x="50" y="397"/>
      <point x="266" y="553"/>
      <point x="456" y="552" type="qcurve"/>
      <point x="567" y="552"/>
      <point x="721" y="498"/>
      <point x="835" y="417"/>
      <point x="932" y="337"/>
      <point x="1038" y="282"/>
      <point x="1108" y="282" type="qcurve"/>
      <point x="1058" y="-20" type="line"/>
      <point x="945" y="-20"/>
      <point x="783" y="47"/>
      <point x="663" y="146"/>
      <point x="569" y="244"/>
      <point x="483" y="312"/>
      <point x="434" y="312" type="qcurve"/>
      <point x="409" y="311"/>
      <point x="349" y="291"/>
      <point x="344" y="256" type="qcurve" smooth="yes"/>
      <point x="338" y="219"/>
      <point x="393" y="198"/>
      <point x="424" y="198" type="qcurve" smooth="yes"/>
      <point x="474" y="198"/>
      <point x="519" y="261"/>
      <point x="526" y="312" type="qcurve"/>
      <point x="754" y="1676" type="line"/>
    </contour>
    <contour>
      <point x="1638" y="-418" type="line"/>
      <point x="1802" y="590" type="line" smooth="yes"/>
      <point x="1830" y="763"/>
      <point x="1999" y="1005"/>
      <point x="2264" y="1132"/>
      <point x="2436" y="1132" type="qcurve" smooth="yes"/>
      <point x="2592" y="1132"/>
      <point x="2780" y="1037"/>
      <point x="2869" y="873"/>
      <point x="2883" y="665"/>
      <point x="2864" y="552" type="qcurve"/>
      <point x="2862" y="544" type="line"/>
      <point x="2834" y="371"/>
      <point x="2690" y="118"/>
      <point x="2475" y="-20"/>
      <point x="2338" y="-20" type="qcurve" smooth="yes"/>
      <point x="2195" y="-20"/>
      <point x="2055" y="125"/>
      <point x="2019" y="383"/>
      <point x="2030" y="550" type="qcurve"/>
      <point x="2182" y="542" type="line"/>
      <point x="2175" y="493"/>
      <point x="2170" y="401"/>
      <point x="2187" y="330"/>
      <point x="2238" y="288"/>
      <point x="2286" y="288" type="qcurve" smooth="yes"/>
      <point x="2351" y="288"/>
      <point x="2427" y="359"/>
      <point x="2467" y="476"/>
      <point x="2478" y="544" type="qcurve"/>
      <point x="2480" y="552" type="line"/>
      <point x="2490" y="612"/>
      <point x="2490" y="732"/>
      <point x="2438" y="812"/>
      <point x="2370" y="812" type="qcurve" smooth="yes"/>
      <point x="2317" y="812"/>
      <point x="2244" y="747"/>
      <point x="2198" y="626"/>
      <point x="2184" y="542" type="qcurve" smooth="yes"/>
      <point x="2024" y="-418" type="line"/>
    </contour>
  </outline>
</glyph>
<glyph name="lari" format="2">
  <advance width="1620"/>
  <unicode hex="20BE"/>
  <outline>
    <contour>
      <point x="1056" y="704" type="line"/>
      <point x="878" y="704" type="line"/>
      <point x="1010" y="1490" type="line"/>
      <point x="1186" y="1490" type="line"/>
    </contour>
    <contour>
      <point x="794" y="704" type="line"/>
      <point x="616" y="704" type="line"/>
      <point x="748" y="1490" type="line"/>
      <point x="926" y="1490" type="line"/>
    </contour>
    <contour>
      <point x="50" y="0" type="line"/>
      <point x="98" y="302" type="line"/>
      <point x="1442" y="302" type="line"/>
      <point x="1394" y="0" type="line"/>
    </contour>
    <contour>
      <point x="744" y="98" type="line"/>
      <point x="506" y="99"/>
      <point x="229" y="254"/>
      <point x="129" y="528"/>
      <point x="158" y="706" type="qcurve" smooth="yes"/>
      <point x="193" y="915"/>
      <point x="416" y="1216"/>
      <point x="748" y="1379"/>
      <point x="948" y="1378" type="qcurve"/>
      <point x="1144" y="1379"/>
      <point x="1421" y="1216"/>
      <point x="1545" y="914"/>
      <point x="1510" y="704" type="qcurve"/>
      <point x="1138" y="704" type="line"/>
      <point x="1162" y="845"/>
      <point x="1122" y="1009"/>
      <point x="999" y="1080"/>
      <point x="898" y="1080" type="qcurve" smooth="yes"/>
      <point x="796" y="1080"/>
      <point x="654" y="1019"/>
      <point x="565" y="862"/>
      <point x="542" y="716" type="qcurve"/>
      <point x="520" y="584"/>
      <point x="549" y="399"/>
      <point x="683" y="303"/>
      <point x="818" y="302" type="qcurve"/>
    </contour>
    <contour>
      <point x="216" y="302" type="line"/>
      <point x="224" y="320" type="line"/>
      <point x="242" y="320" type="line"/>
      <point x="242" y="302" type="line"/>
    </contour>
  </outline>
</glyph>
<glyph name="arrowup" format="2">
  <advance width="1978"/>
  <unicode hex="2191"/>
  <outline>
    <contour>
      <point x="231" y="734" type="line"/>
      <point x="1149" y="1522" type="line"/>
      <point x="1805" y="734" type="line"/>
      <point x="1566" y="528" type="line"/>
      <point x="1356" y="779" type="line" smooth="yes"/>
      <point x="1310" y="835"/>
      <point x="1215" y="992"/>
      <point x="1136" y="1138"/>
      <point x="1114" y="1178" type="qcurve"/>
      <point x="1186" y="1178" type="line"/>
      <point x="1188" y="1141"/>
      <point x="1192" y="1004"/>
      <point x="1189" y="853"/>
      <point x="1179" y="796" type="qcurve" smooth="yes"/>
      <point x="1047" y="0" type="line"/>
      <point x="745" y="0" type="line"/>
      <point x="877" y="796" type="line" smooth="yes"/>
      <point x="887" y="853"/>
      <point x="933" y="1004"/>
      <point x="982" y="1141"/>
      <point x="996" y="1178" type="qcurve"/>
      <point x="1067" y="1178" type="line"/>
      <point x="1041" y="1148"/>
      <point x="951" y="1045"/>
      <point x="844" y="926"/>
      <point x="738" y="816"/>
      <point x="695" y="779" type="qcurve" smooth="yes"/>
      <point x="402" y="528" type="line"/>
    </contour>
  </outline>
</glyph>
<glyph name="arrowboth" format="2">
  <advance width="2746"/>
  <unicode hex="2194"/>
  <outline>
    <contour>
      <point x="800" y="-45" type="line"/>
      <point x="217" y="652" type="line"/>
      <point x="1031" y="1349" type="line"/>
      <point x="1203" y="1144" type="line"/>
      <point x="1015" y="982" type="line" smooth="yes"/>
      <point x="966" y="940"/>
      <point x="839" y="850"/>
      <point x="709" y="765"/>
      <point x="598" y="695"/>
      <point x="565" y="674" type="qcurve"/>
      <point x="576" y="746" type="line"/>
      <point x="615" y="754"/>
      <point x="757" y="781"/>
      <point x="911" y="802"/>
      <point x="968" y="802" type="qcurve" smooth="yes"/>
      <point x="1858" y="802" type="line" smooth="yes"/>
      <point x="1915" y="802"/>
      <point x="2062" y="781"/>
      <point x="2195" y="754"/>
      <point x="2230" y="746" type="qcurve"/>
      <point x="2219" y="674" type="line"/>
      <point x="2184" y="703"/>
      <point x="2054" y="805"/>
      <point x="1918" y="926"/>
      <point x="1871" y="982" type="qcurve" smooth="yes"/>
      <point x="1736" y="1144" type="line"/>
      <point x="1975" y="1349" type="line"/>
      <point x="2559" y="652" type="line"/>
      <point x="1746" y="-45" type="line"/>
      <point x="1573" y="160" type="line"/>
      <point x="1761" y="321" type="line" smooth="yes"/>
      <point x="1804" y="358"/>
      <point x="1929" y="446"/>
      <point x="2062" y="533"/>
      <point x="2178" y="606"/>
      <point x="2211" y="627" type="qcurve"/>
      <point x="2199" y="556" type="line"/>
      <point x="2161" y="548"/>
      <point x="2019" y="521"/>
      <point x="1865" y="500"/>
      <point x="1808" y="500" type="qcurve" smooth="yes"/>
      <point x="918" y="500" type="line" smooth="yes"/>
      <point x="861" y="500"/>
      <point x="714" y="521"/>
      <point x="581" y="548"/>
      <point x="545" y="556" type="qcurve"/>
      <point x="557" y="627" type="line"/>
      <point x="584" y="606"/>
      <point x="675" y="533"/>
      <point x="779" y="446"/>
      <point x="874" y="358"/>
      <point x="905" y="321" type="qcurve" smooth="yes"/>
      <point x="1039" y="160" type="line"/>
    </contour>
  </outline>
</glyph>
<glyph name="arrowNW" format="2">
  <advance width="1616"/>
  <unicode hex="2196"/>
  <outline>
    <contour>
      <point x="158" y="0" type="line"/>
      <point x="343" y="1118" type="line"/>
      <point x="1458" y="1118" type="line"/>
      <point x="1408" y="818" type="line"/>
      <point x="1052" y="818" type="line" smooth="yes"/>
      <point x="973" y="818"/>
      <point x="780" y="843"/>
      <point x="610" y="874"/>
      <point x="563" y="882" type="qcurve"/>
      <point x="624" y="941" type="line"/>
      <point x="652" y="921"/>
      <point x="754" y="842"/>
      <point x="861" y="750"/>
      <point x="895" y="710" type="qcurve" smooth="yes"/>
      <point x="1329" y="191" type="line"/>
      <point x="1079" y="-23" type="line"/>
      <point x="646" y="497" type="line"/>
      <point x="613" y="538"/>
      <point x="541" y="659"/>
      <point x="482" y="775"/>
      <point x="466" y="806" type="qcurve"/>
      <point x="533" y="857" type="line"/>
      <point x="533" y="821"/>
      <point x="534" y="697"/>
      <point x="533" y="551"/>
      <point x="525" y="410"/>
      <point x="516" y="358" type="qcurve" smooth="yes"/>
      <point x="457" y="0" type="line"/>
    </contour>
  </outline>
</glyph>
<glyph name="emptyset" format="2">
  <advance width="1420"/>
  <unicode hex="2205"/>
  <outline>
    <contour>
      <point x="78" y="-50" type="line"/>
      <point x="14" y="30" type="line"/>
      <point x="1342" y="1166" type="line"/>
      <point x="1406" y="1090" type="line"/>
    </contour>
    <contour>
      <point x="616" y="-18" type="qcurve"/>
      <point x="457" y="-17"/>
      <point x="221" y="138"/>
      <point x="109" y="400"/>
      <point x="136" y="558" type="qcurve"/>
      <point x="155" y="677"/>
      <point x="279" y="885"/>
      <point x="464" y="1043"/>
      <point x="688" y="1132"/>
      <point x="808" y="1132" type="qcurve" smooth="yes"/>
      <point x="966" y="1132"/>
      <point x="1200" y="978"/>
      <point x="1311" y="717"/>
      <point x="1286" y="558" type="qcurve"/>
      <point x="1265" y="439"/>
      <point x="1141" y="231"/>
      <point x="957" y="72"/>
      <point x="735" y="-18"/>
    </contour>
    <contour>
      <point x="674" y="332" type="qcurve" smooth="yes"/>
      <point x="721" y="332"/>
      <point x="807" y="367"/>
      <point x="879" y="429"/>
      <point x="928" y="511"/>
      <point x="936" y="558" type="qcurve" smooth="yes"/>
      <point x="947" y="621"/>
      <point x="903" y="724"/>
      <point x="811" y="784"/>
      <point x="750" y="782" type="qcurve"/>
      <point x="702" y="783"/>
      <point x="614" y="749"/>
      <point x="541" y="687"/>
      <point x="493" y="605"/>
      <point x="486" y="558" type="qcurve"/>
      <point x="475" y="496"/>
      <point x="518" y="393"/>
      <point x="611" y="332"/>
    </contour>
  </outline>
</glyph>
<glyph name="projective" format="2">
  <advance width="1630"/>
  <unicode hex="2305"/>
  <outline>
    <contour>
      <point x="280" y="1186" type="line"/>
      <point x="328" y="1490" type="line"/>
      <point x="1608" y="1490" type="line"/>
      <point x="1560" y="1186" type="line"/>
    </contour>
    <contour>
      <point x="342" y="284" type="line"/>
      <point x="158" y="490" type="line"/>
      <point x="906" y="1132" type="line"/>
      <point x="1446" y="482" type="line"/>
      <point x="1216" y="284" type="line"/>
      <point x="852" y="720" type="line"/>
    </contour>
  </outline>
</glyph>
<glyph name="starblack" format="2">
  <advance width="2142"/>
  <unicode hex="2605"/>
  <outline>
    <contour>
      <point x="1042" y="382" type="line"/>
      <point x="426" y="-14" type="line"/>
      <point x="750" y="632" type="line"/>
      <point x="264" y="1030" type="line"/>
      <point x="940" y="1030" type="line"/>
      <point x="1256" y="1676" type="line"/>
      <point x="1358" y="1030" type="line"/>
      <point x="2034" y="1030" type="line"/>
      <point x="1416" y="632" type="line"/>
      <point x="1526" y="-14" type="line"/>
    </contour>
  </outline>
</glyph>
<glyph name="i.numr" format="2">
  <advance width="390"/>
  <unicode hex="E0A5"/>
  <outline>
    <contour>
      <point x="94" y="744" type="line"/>
      <point x="226" y="1536" type="line"/>
      <point x="490" y="1536" type="line"/>
      <point x="360" y="744" type="line"/>
    </contour>
    <contour>
      <point x="368" y="1606" type="qcurve" smooth="yes"/>
      <point x="313" y="1606"/>
      <point x="242" y="1686"/>
      <point x="252" y="1742" type="qcurve"/>
      <point x="260" y="1797"/>
      <point x="356" y="1879"/>
      <point x="414" y="1880" type="qcurve"/>
      <point x="473" y="1879"/>
      <point x="542" y="1799"/>
      <point x="534" y="1742" type="qcurve"/>
      <point x="524" y="1686"/>
      <point x="427" y="1606"/>
    </contour>
  </outline>
</glyph>
<glyph name="six.dnom" format="2">
  <advance width="776"/>
  <unicode hex="E0BA"/>
  <outline>
    <contour>
      <point x="290" y="-11" type="qcurve" smooth="yes"/>
      <point x="213" y="-11"/>
      <point x="71" y="44"/>
      <point x="-7" y="170"/>
      <point x="10" y="276" type="qcurve" smooth="yes"/>
      <point x="22" y="348"/>
      <point x="97" y="483"/>
      <point x="151" y="549" type="qcurve" smooth="yes"/>
      <point x="391" y="842" type="line"/>
      <point x="603" y="842" type="line"/>
      <point x="299" y="477" type="line"/>
      <point x="201" y="477" type="line"/>
      <point x="225" y="506"/>
      <point x="379" y="554"/>
      <point x="467" y="554" type="qcurve" smooth="yes"/>
      <point x="573" y="554"/>
      <point x="692" y="423"/>
      <point x="671" y="297" type="qcurve" smooth="yes"/>
      <point x="655" y="198"/>
      <point x="543" y="61"/>
      <point x="382" y="-11"/>
    </contour>
    <contour>
      <point x="325" y="167" type="qcurve" smooth="yes"/>
      <point x="374" y="167"/>
      <point x="444" y="234"/>
      <point x="452" y="282" type="qcurve" smooth="yes"/>
      <point x="460" y="330"/>
      <point x="414" y="399"/>
      <point x="364" y="399" type="qcurve" smooth="yes"/>
      <point x="333" y="399"/>
      <point x="279" y="367"/>
      <point x="243" y="314"/>
      <point x="238" y="281" type="qcurve" smooth="yes"/>
      <point x="231" y="232"/>
      <point x="280" y="167"/>
    </contour>
  </outline>
</glyph>
<glyph name="seven.dnom" format="2">
  <advance width="710"/>
  <unicode hex="E0BB"/>
  <outline>
    <contour>
      <point x="2" y="0" type="line"/>
      <point x="426" y="651" type="line"/>
      <point x="427" y="658" type="line"/>
      <point x="59" y="658" type="line"/>
      <point x="90" y="842" type="line"/>
      <point x="709" y="842" type="line"/>
      <point x="677" y="652" type="line"/>
      <point x="251" y="0" type="line"/>
    </contour>
  </outline>
</glyph>
<glyph name="equal.numr" format="2">
  <advance width="835"/>
  <unicode hex="E0D9"/>
  <outline>
    <contour>
      <point x="200" y="1182" type="line"/>
      <point x="232" y="1376" type="line"/>
      <point x="874" y="1376" type="line"/>
      <point x="842" y="1182" type="line"/>
    </contour>
    <contour>
      <point x="153" y="902" type="line"/>
      <point x="185" y="1096" type="line"/>
      <point x="827" y="1096" type="line"/>
      <point x="795" y="902" type="line"/>
    </contour>
  </outline>
</glyph>
<glyph name="dotmacron.lc" format="2">
  <advance width="670"/>
  <unicode hex="E10C"/>
  <outline>
    <contour>
      <point x="858" y="1858" type="line"/>
      <point x="819" y="1672" type="line"/>
      <point x="219" y="1672" type="line"/>
      <point x="258" y="1858" type="line"/>
    </contour>
    <contour>
      <point x="248" y="1256" type="line"/>
      <point x="303" y="1586" type="line"/>
      <point x="705" y="1586" type="line"/>
      <point x="650" y="1256" type="line"/>
    </contour>
  </outline>
</glyph>
<glyph name="dieresisgravecomb.lc" format="2">
  <advance width="1330"/>
  <unicode hex="E10E"/>
  <unicode hex="E2D1"/>
  <anchor x="705" y="1118" name="_top"/>
  <outline>
    <contour>
      <point x="906" y="1632" type="line"/>
      <point x="838" y="1893" type="line"/>
      <point x="563" y="1893" type="line"/>
      <point x="694" y="1632" type="line"/>
    </contour>
    <contour>
      <point x="711" y="1260" type="line"/>
      <point x="755" y="1524" type="line"/>
      <point x="433" y="1524" type="line"/>
      <point x="389" y="1260" type="line"/>
    </contour>
    <contour>
      <point x="1173" y="1260" type="line"/>
      <point x="1217" y="1524" type="line"/>
      <point x="895" y="1524" type="line"/>
      <point x="851" y="1260" type="line"/>
    </contour>
  </outline>
</glyph>
<glyph name="tildeacute.lc" format="2">
  <advance width="1025"/>
  <unicode hex="E112"/>
  <outline>
    <contour>
      <point x="772" y="1232" type="qcurve" smooth="yes"/>
      <point x="715" y="1232"/>
      <point x="643" y="1268"/>
      <point x="593" y="1316"/>
      <point x="550" y="1352"/>
      <point x="522" y="1352" type="qcurve" smooth="yes"/>
      <point x="487" y="1352"/>
      <point x="438" y="1295"/>
      <point x="427" y="1240" type="qcurve"/>
      <point x="229" y="1240" type="line"/>
      <point x="258" y="1398"/>
      <point x="426" y="1552"/>
      <point x="529" y="1552" type="qcurve" smooth="yes"/>
      <point x="585" y="1552"/>
      <point x="659" y="1517"/>
      <point x="711" y="1470"/>
      <point x="754" y="1435"/>
      <point x="780" y="1435" type="qcurve" smooth="yes"/>
      <point x="822" y="1435"/>
      <point x="866" y="1494"/>
      <point x="876" y="1546" type="qcurve"/>
      <point x="1072" y="1546" type="line"/>
      <point x="1044" y="1392"/>
      <point x="874" y="1232"/>
    </contour>
    <contour>
      <point x="591" y="1632" type="line"/>
      <point x="745" y="1893" type="line"/>
      <point x="1020" y="1893" type="line"/>
      <point x="802" y="1632" type="line"/>
    </contour>
  </outline>
</glyph>
<glyph name="braceright.tf" format="2">
  <advance width="800"/>
  <outline>
    <contour>
      <point x="828" y="627" type="line"/>
      <point x="654" y="627"/>
      <point x="449" y="686"/>
      <point x="352" y="781"/>
      <point x="330" y="895"/>
      <point x="338" y="949" type="qcurve" smooth="yes"/>
      <point x="361" y="1109" type="line" smooth="yes"/>
      <point x="375" y="1201"/>
      <point x="314" y="1289"/>
      <point x="196" y="1289" type="qcurve"/>
      <point x="239" y="1581" type="line"/>
      <point x="340" y="1581"/>
      <point x="528" y="1565"/>
      <point x="668" y="1491"/>
      <point x="730" y="1318"/>
      <point x="706" y="1161" type="qcurve" smooth="yes"/>
      <point x="686" y="1033" type="line" smooth="yes"/>
      <point x="669" y="926"/>
      <point x="745" y="825"/>
      <point x="859" y="825" type="qcurve"/>
    </contour>
    <contour>
      <point x="-38" y="-279" type="qcurve"/>
      <point x="6" y="13" type="line"/>
      <point x="124" y="13"/>
      <point x="210" y="102"/>
      <point x="224" y="193" type="qcurve" smooth="yes"/>
      <point x="249" y="353" type="line" smooth="yes"/>
      <point x="257" y="407"/>
      <point x="313" y="521"/>
      <point x="439" y="616"/>
      <point x="661" y="675"/>
      <point x="835" y="675" type="qcurve"/>
      <point x="807" y="477" type="line"/>
      <point x="693" y="477"/>
      <point x="588" y="376"/>
      <point x="573" y="269" type="qcurve" smooth="yes"/>
      <point x="554" y="141" type="line" smooth="yes"/>
      <point x="530" y="-16"/>
      <point x="416" y="-189"/>
      <point x="255" y="-263"/>
      <point x="63" y="-279"/>
    </contour>
    <contour>
      <point x="807" y="477" type="line"/>
      <point x="501" y="477" type="line"/>
      <point x="553" y="825" type="line"/>
      <point x="859" y="825" type="line"/>
    </contour>
  </outline>
</glyph>
<glyph name="crossbar_left_long" format="2">
  <advance width="1166"/>
  <outline>
    <contour>
      <point x="141" y="637" type="line"/>
      <point x="177" y="853" type="line"/>
      <point x="1087" y="853" type="line"/>
      <point x="1051" y="637" type="line"/>
    </contour>
  </outline>
</glyph>
<glyph name="f.1" format="2">
  <advance width="790"/>
  <anchor x="276" y="0" name="m.uni0326"/>
  <anchor x="677" y="1538" name="m.uni030F_1"/>
  <outline>
    <contour>
      <point x="824" y="1118" type="line"/>
      <point x="775" y="826" type="line"/>
      <point x="338" y="826" type="line"/>
      <point x="387" y="1118" type="line"/>
    </contour>
    <contour>
      <point x="5" y="0" type="line"/>
      <point x="189" y="1090" type="line" smooth="yes"/>
      <point x="215" y="1242"/>
      <point x="355" y="1450"/>
      <point x="579" y="1558"/>
      <point x="728" y="1558" type="qcurve" smooth="yes"/>
      <point x="785" y="1558"/>
      <point x="878" y="1549"/>
      <point x="927" y="1536" type="qcurve"/>
      <point x="829" y="1248" type="line"/>
      <point x="805" y="1252"/>
      <point x="763" y="1256"/>
      <point x="724" y="1256" type="qcurve" smooth="yes"/>
      <point x="669" y="1256"/>
      <point x="610" y="1204"/>
      <point x="601" y="1150" type="qcurve" smooth="yes"/>
      <point x="411" y="0" type="line"/>
    </contour>
  </outline>
</glyph>
<glyph name="ghook.sc" format="2">
  <advance width="1345"/>
  <anchor x="551" y="6" name="m.uni0326"/>
  <anchor x="744" y="1118" name="m.uni030F_1"/>
  <outline>
    <contour>
      <point x="954" y="777" type="line"/>
      <point x="916" y="960" type="line" smooth="yes"/>
      <point x="895" y="1064"/>
      <point x="942" y="1223"/>
      <point x="1098" y="1312"/>
      <point x="1238" y="1312" type="qcurve" smooth="yes"/>
      <point x="1293" y="1312"/>
      <point x="1390" y="1300"/>
      <point x="1432" y="1288" type="qcurve"/>
      <point x="1387" y="1015" type="line"/>
      <point x="1358" y="1019"/>
      <point x="1303" y="1024"/>
      <point x="1274" y="1024" type="qcurve" smooth="yes"/>
      <point x="1216" y="1024"/>
      <point x="1146" y="987"/>
      <point x="1153" y="944" type="qcurve" smooth="yes"/>
      <point x="1177" y="796" type="line"/>
    </contour>
    <contour>
      <point x="554" y="-15" type="qcurve" smooth="yes"/>
      <point x="399" y="-15"/>
      <point x="175" y="98"/>
      <point x="54" y="308"/>
      <point x="54" y="454" type="qcurve" smooth="yes"/>
      <point x="54" y="600"/>
      <point x="152" y="848"/>
      <point x="329" y="1031"/>
      <point x="569" y="1132"/>
      <point x="710" y="1132" type="qcurve" smooth="yes"/>
      <point x="840" y="1132"/>
      <point x="1045" y="1043"/>
      <point x="1167" y="886"/>
      <point x="1173" y="783" type="qcurve"/>
      <point x="839" y="758" type="line"/>
      <point x="835" y="800"/>
      <point x="771" y="831"/>
      <point x="724" y="831" type="qcurve" smooth="yes"/>
      <point x="654" y="831"/>
      <point x="547" y="765"/>
      <point x="477" y="657"/>
      <point x="441" y="525"/>
      <point x="441" y="459" type="qcurve" smooth="yes"/>
      <point x="441" y="376"/>
      <point x="516" y="286"/>
      <point x="588" y="286" type="qcurve" smooth="yes"/>
      <point x="645" y="286"/>
      <point x="735" y="333"/>
      <point x="792" y="411"/>
      <point x="799" y="455" type="qcurve"/>
      <point x="823" y="437" type="line"/>
      <point x="584" y="437" type="line"/>
      <point x="620" y="657" type="line"/>
      <point x="1179" y="657" type="line"/>
      <point x="1160" y="542" type="line" smooth="yes"/>
      <point x="1129" y="355"/>
      <point x="964" y="107"/>
      <point x="713" y="-15"/>
    </contour>
  </outline>
</glyph>
<glyph name="i.sc" format="2">
  <advance width="853"/>
  <outline>
    <contour>
      <point x="141" y="24" type="line"/>
      <point x="318" y="1094" type="line"/>
      <point x="712" y="1094" type="line"/>
      <point x="535" y="24" type="line"/>
    </contour>
    <contour>
      <point x="-12" y="0" type="line"/>
      <point x="36" y="292" type="line"/>
      <point x="728" y="292" type="line"/>
      <point x="680" y="0" type="line"/>
    </contour>
    <contour>
      <point x="125" y="826" type="line"/>
      <point x="173" y="1118" type="line"/>
      <point x="865" y="1118" type="line"/>
      <point x="817" y="826" type="line"/>
    </contour>
  </outline>
</glyph>
<glyph name="ogonek.A" format="2">
  <advance width="531"/>
  <outline>
    <contour>
      <point x="150" y="-426" type="qcurve" smooth="yes"/>
      <point x="17" y="-426"/>
      <point x="-140" y="-298"/>
      <point x="-123" y="-192" type="qcurve"/>
      <point x="-112" y="-130"/>
      <point x="-34" y="-20"/>
      <point x="17" y="16" type="qcurve"/>
      <point x="438" y="0" type="line"/>
      <point x="343" y="-28"/>
      <point x="262" y="-101"/>
      <point x="254" y="-145" type="qcurve" smooth="yes"/>
      <point x="249" y="-177"/>
      <point x="275" y="-214"/>
      <point x="306" y="-214" type="qcurve" smooth="yes"/>
      <point x="323" y="-214"/>
      <point x="357" y="-204"/>
      <point x="373" y="-195" type="qcurve"/>
      <point x="412" y="-375" type="line"/>
      <point x="366" y="-399"/>
      <point x="212" y="-426"/>
    </contour>
  </outline>
</glyph>
<glyph name="one.tf" format="2">
  <advance width="1328"/>
  <outline>
    <contour>
      <point x="45" y="0" type="line"/>
      <point x="98" y="322" type="line"/>
      <point x="1177" y="322" type="line"/>
      <point x="1124" y="0" type="line"/>
    </contour>
    <contour>
      <point x="1082" y="1490" type="line"/>
      <point x="835" y="0" type="line"/>
      <point x="431" y="0" type="line"/>
      <point x="620" y="1142" type="line"/>
      <point x="610" y="1142" type="line"/>
      <point x="248" y="922" type="line"/>
      <point x="305" y="1266" type="line"/>
      <point x="676" y="1490" type="line"/>
    </contour>
  </outline>
</glyph>
<glyph name="pecyrillicturn" format="2">
  <advance width="1301"/>
  <outline>
    <contour>
      <point x="10" y="0" type="line"/>
      <point x="195" y="1118" type="line"/>
      <point x="597" y="1118" type="line"/>
      <point x="462" y="300" type="line"/>
      <point x="754" y="300" type="line"/>
      <point x="889" y="1118" type="line"/>
      <point x="1291" y="1118" type="line"/>
      <point x="1106" y="0" type="line"/>
    </contour>
  </outline>
</glyph>
<glyph name="questiondown.case" format="2">
  <advance width="1229"/>
  <outline>
    <contour>
      <point x="849" y="1024" type="line"/>
      <point x="843" y="990" type="line" smooth="yes"/>
      <point x="823" y="870"/>
      <point x="762" y="727"/>
      <point x="674" y="641"/>
      <point x="614" y="606" type="qcurve" smooth="yes"/>
      <point x="537" y="560"/>
      <point x="430" y="475"/>
      <point x="420" y="414" type="qcurve" smooth="yes"/>
      <point x="414" y="377"/>
      <point x="440" y="323"/>
      <point x="494" y="292"/>
      <point x="530" y="292" type="qcurve" smooth="yes"/>
      <point x="569" y="292"/>
      <point x="642" y="328"/>
      <point x="692" y="392"/>
      <point x="699" y="434" type="qcurve"/>
      <point x="1071" y="434" type="line"/>
      <point x="1044" y="274"/>
      <point x="869" y="74"/>
      <point x="617" y="-20"/>
      <point x="476" y="-20" type="qcurve" smooth="yes"/>
      <point x="320" y="-20"/>
      <point x="91" y="71"/>
      <point x="-21" y="253"/>
      <point x="2" y="390" type="qcurve" smooth="yes"/>
      <point x="24" y="523"/>
      <point x="184" y="692"/>
      <point x="302" y="754" type="qcurve" smooth="yes"/>
      <point x="359" y="785"/>
      <point x="441" y="850"/>
      <point x="491" y="932"/>
      <point x="501" y="990" type="qcurve" smooth="yes"/>
      <point x="507" y="1024" type="line"/>
    </contour>
    <contour>
      <point x="959" y="1490" type="line"/>
      <point x="895" y="1139" type="line"/>
      <point x="487" y="1139" type="line"/>
      <point x="551" y="1490" type="line"/>
    </contour>
  </outline>
</glyph>
<glyph name="semicolonreversed.ss03" format="2">
  <advance width="774"/>
  <outline>
    <contour>
      <point x="372" y="-349" type="line"/>
      <point x="240" y="-302"/>
      <point x="104" y="-159"/>
      <point x="70" y="29"/>
      <point x="88" y="141" type="qcurve" smooth="yes"/>
      <point x="108" y="263"/>
      <point x="261" y="380"/>
      <point x="352" y="380" type="qcurve" smooth="yes"/>
      <point x="446" y="380"/>
      <point x="546" y="268"/>
      <point x="532" y="180" type="qcurve" smooth="yes"/>
      <point x="518" y="94"/>
      <point x="389" y="-16"/>
      <point x="302" y="-16" type="qcurve" smooth="yes"/>
      <point x="217" y="-16"/>
      <point x="176" y="95"/>
      <point x="190" y="180" type="qcurve"/>
      <point x="247" y="180" type="line"/>
      <point x="244" y="162"/>
      <point x="238" y="125"/>
      <point x="232" y="88"/>
      <point x="228" y="69" type="qcurve"/>
      <point x="219" y="15"/>
      <point x="245" y="-89"/>
      <point x="342" y="-178"/>
      <point x="439" y="-212" type="qcurve"/>
    </contour>
    <contour>
      <point x="389" y="661" type="qcurve" smooth="yes"/>
      <point x="301" y="661"/>
      <point x="203" y="777"/>
      <point x="217" y="864" type="qcurve" smooth="yes"/>
      <point x="231" y="951"/>
      <point x="369" y="1067"/>
      <point x="457" y="1067" type="qcurve" smooth="yes"/>
      <point x="545" y="1067"/>
      <point x="643" y="951"/>
      <point x="629" y="864" type="qcurve" smooth="yes"/>
      <point x="615" y="777"/>
      <point x="477" y="661"/>
    </contour>
  </outline>
</glyph>
